<?xml version="1.0" encoding="us-ascii" standalone="no"?><svg xmlns="http://www.w3.org/2000/svg" xmlns:xlink="http://www.w3.org/1999/xlink" contentStyleType="text/css" height="1079px" preserveAspectRatio="none" style="width:1318px;height:1079px;background:#FFFFFF;" version="1.1" viewBox="0 0 1318 1079" width="1318px" zoomAndPan="magnify"><defs/><g><rect fill="none" height="709.4063" style="stroke:#000000;stroke-width:1.5;" width="1199" x="102" y="177.6641"/><rect fill="none" height="412.4063" style="stroke:#000000;stroke-width:1.5;" width="1179" x="112" y="391.125"/><rect fill="none" height="79.0547" style="stroke:#000000;stroke-width:1.5;" width="359.5" x="395" y="477.1797"/><line style="stroke:#181818;stroke-width:0.5;stroke-dasharray:5.0,5.0;" x1="32" x2="32" y1="83.6094" y2="995.125"/><line style="stroke:#181818;stroke-width:0.5;stroke-dasharray:5.0,5.0;" x1="189" x2="189" y1="83.6094" y2="995.125"/><line style="stroke:#181818;stroke-width:0.5;stroke-dasharray:5.0,5.0;" x1="483" x2="483" y1="83.6094" y2="995.125"/><line style="stroke:#181818;stroke-width:0.5;stroke-dasharray:5.0,5.0;" x1="694.5" x2="694.5" y1="83.6094" y2="995.125"/><line style="stroke:#181818;stroke-width:0.5;stroke-dasharray:5.0,5.0;" x1="847.5" x2="847.5" y1="83.6094" y2="995.125"/><line style="stroke:#181818;stroke-width:0.5;stroke-dasharray:5.0,5.0;" x1="997.5" x2="997.5" y1="83.6094" y2="995.125"/><text fill="#000000" font-family="sans-serif" font-size="14" lengthAdjust="spacing" textLength="36" x="11.5" y="80.5332">Client</text><ellipse cx="32.5" cy="21.5" fill="#E2E2F0" rx="16" ry="16" style="stroke:#181818;stroke-width:0.5;"/><path d="M32.5,41.5 C36.5,41.5 39.5,41.5 43.5,37.5 C51.5,37.5 59.5,45.5 59.5,53.5 L59.5,57.5 C59.5,61.5 55.5,65.5 51.5,65.5 L13.5,65.5 C9.5,65.5 5.5,61.5 5.5,57.5 L5.5,53.5 C5.5,45.5 13.5,37.5 21.5,37.5 C25.5,41.5 28.5,41.5 32.5,41.5 " fill="#E2E2F0" style="stroke:#181818;stroke-width:0.5;"/><text fill="#000000" font-family="sans-serif" font-size="14" lengthAdjust="spacing" textLength="36" x="11.5" y="1008.6582">Client</text><ellipse cx="32.5" cy="1028.2344" fill="#E2E2F0" rx="16" ry="16" style="stroke:#181818;stroke-width:0.5;"/><path d="M32.5,1048.2344 C36.5,1048.2344 39.5,1048.2344 43.5,1044.2344 C51.5,1044.2344 59.5,1052.2344 59.5,1060.2344 L59.5,1064.2344 C59.5,1068.2344 55.5,1072.2344 51.5,1072.2344 L13.5,1072.2344 C9.5,1072.2344 5.5,1068.2344 5.5,1064.2344 L5.5,1060.2344 C5.5,1052.2344 13.5,1044.2344 21.5,1044.2344 C25.5,1048.2344 28.5,1048.2344 32.5,1048.2344 " fill="#E2E2F0" style="stroke:#181818;stroke-width:0.5;"/><rect fill="#E2E2F0" height="31.6094" rx="2.5" ry="2.5" style="stroke:#181818;stroke-width:0.5;" width="135" x="122" y="51"/><text fill="#000000" font-family="sans-serif" font-size="14" lengthAdjust="spacing" textLength="121" x="129" y="72.5332">Interface Utilisateur</text><rect fill="#E2E2F0" height="31.6094" rx="2.5" ry="2.5" style="stroke:#181818;stroke-width:0.5;" width="135" x="122" y="994.125"/><text fill="#000000" font-family="sans-serif" font-size="14" lengthAdjust="spacing" textLength="121" x="129" y="1015.6582">Interface Utilisateur</text><rect fill="#E2E2F0" height="31.6094" rx="2.5" ry="2.5" style="stroke:#181818;stroke-width:0.5;" width="157" x="405" y="51"/><text fill="#000000" font-family="sans-serif" font-size="14" lengthAdjust="spacing" textLength="143" x="412" y="72.5332">Contr&#244;leur Commande</text><rect fill="#E2E2F0" height="31.6094" rx="2.5" ry="2.5" style="stroke:#181818;stroke-width:0.5;" width="157" x="405" y="994.125"/><text fill="#000000" font-family="sans-serif" font-size="14" lengthAdjust="spacing" textLength="143" x="412" y="1015.6582">Contr&#244;leur Commande</text><rect fill="#E2E2F0" height="31.6094" rx="2.5" ry="2.5" style="stroke:#181818;stroke-width:0.5;" width="100" x="644.5" y="51"/><text fill="#000000" font-family="sans-serif" font-size="14" lengthAdjust="spacing" textLength="86" x="651.5" y="72.5332">Service Stock</text><rect fill="#E2E2F0" height="31.6094" rx="2.5" ry="2.5" style="stroke:#181818;stroke-width:0.5;" width="100" x="644.5" y="994.125"/><text fill="#000000" font-family="sans-serif" font-size="14" lengthAdjust="spacing" textLength="86" x="651.5" y="1015.6582">Service Stock</text><rect fill="#E2E2F0" height="31.6094" rx="2.5" ry="2.5" style="stroke:#181818;stroke-width:0.5;" width="186" x="754.5" y="51"/><text fill="#000000" font-family="sans-serif" font-size="14" lengthAdjust="spacing" textLength="172" x="761.5" y="72.5332">Service Paiement (Externe)</text><rect fill="#E2E2F0" height="31.6094" rx="2.5" ry="2.5" style="stroke:#181818;stroke-width:0.5;" width="186" x="754.5" y="994.125"/><text fill="#000000" font-family="sans-serif" font-size="14" lengthAdjust="spacing" textLength="172" x="761.5" y="1015.6582">Service Paiement (Externe)</text><rect fill="#E2E2F0" height="31.6094" rx="2.5" ry="2.5" style="stroke:#181818;stroke-width:0.5;" width="94" x="950.5" y="51"/><text fill="#000000" font-family="sans-serif" font-size="14" lengthAdjust="spacing" textLength="80" x="957.5" y="72.5332">Service BDD</text><rect fill="#E2E2F0" height="31.6094" rx="2.5" ry="2.5" style="stroke:#181818;stroke-width:0.5;" width="94" x="950.5" y="994.125"/><text fill="#000000" font-family="sans-serif" font-size="14" lengthAdjust="spacing" textLength="80" x="957.5" y="1015.6582">Service BDD</text><polygon fill="#181818" points="177.5,128.3125,187.5,132.3125,177.5,136.3125,181.5,132.3125" style="stroke:#181818;stroke-width:1.0;"/><line style="stroke:#181818;stroke-width:1.0;" x1="32.5" x2="183.5" y1="132.3125" y2="132.3125"/><text fill="#000000" font-family="sans-serif" font-size="13" lengthAdjust="spacing" textLength="106" x="39.5" y="111.1045">Clique sur "Payer"</text><text fill="#000000" font-family="sans-serif" font-size="13" lengthAdjust="spacing" textLength="98" x="39.5" y="127.4561">(avec infos carte)</text><polygon fill="#181818" points="471.5,158.6641,481.5,162.6641,471.5,166.6641,475.5,162.6641" style="stroke:#181818;stroke-width:1.0;"/><line style="stroke:#181818;stroke-width:1.0;" x1="189.5" x2="477.5" y1="162.6641" y2="162.6641"/><text fill="#000000" font-family="sans-serif" font-size="13" lengthAdjust="spacing" textLength="270" x="196.5" y="157.8076">initierPaiement(idClient, panier, infosPaiement)</text><path d="M102,177.6641 L163,177.6641 L163,186.0156 L153,196.0156 L102,196.0156 L102,177.6641 " fill="#EEEEEE" style="stroke:#000000;stroke-width:1.5;"/><rect fill="none" height="709.4063" style="stroke:#000000;stroke-width:1.5;" width="1199" x="102" y="177.6641"/><text fill="#000000" font-family="sans-serif" font-size="13" font-weight="bold" lengthAdjust="spacing" textLength="16" x="117" y="192.1592">alt</text><text fill="#000000" font-family="sans-serif" font-size="11" font-weight="bold" lengthAdjust="spacing" textLength="94" x="178" y="191.083">[Disponibilit&#233; OK]</text><polygon fill="#181818" points="682.5,214.3672,692.5,218.3672,682.5,222.3672,686.5,218.3672" style="stroke:#181818;stroke-width:1.0;"/><line style="stroke:#181818;stroke-width:1.0;" x1="483.5" x2="688.5" y1="218.3672" y2="218.3672"/><text fill="#000000" font-family="sans-serif" font-size="13" lengthAdjust="spacing" textLength="187" x="490.5" y="213.5107">verifierDisponibilite(panier.lignes)</text><polygon fill="#181818" points="494.5,244.7188,484.5,248.7188,494.5,252.7188,490.5,248.7188" style="stroke:#181818;stroke-width:1.0;"/><line style="stroke:#181818;stroke-width:1.0;stroke-dasharray:2.0,2.0;" x1="488.5" x2="693.5" y1="248.7188" y2="248.7188"/><text fill="#000000" font-family="sans-serif" font-size="13" lengthAdjust="spacing" textLength="120" x="500.5" y="243.8623">R&#233;ponse : Stock OK</text><path d="M488,261.7188 L488,287.7188 L765,287.7188 L765,271.7188 L755,261.7188 L488,261.7188 " fill="#FEFFDD" style="stroke:#181818;stroke-width:0.5;"/><path d="M755,261.7188 L755,271.7188 L765,271.7188 L755,261.7188 " fill="#FEFFDD" style="stroke:#181818;stroke-width:0.5;"/><text fill="#000000" font-family="sans-serif" font-size="13" lengthAdjust="spacing" textLength="256" x="494" y="280.2139">Cr&#233;ation Commande\n(statut = "En attente")</text><polygon fill="#181818" points="985.5,311.4219,995.5,315.4219,985.5,319.4219,989.5,315.4219" style="stroke:#181818;stroke-width:1.0;"/><line style="stroke:#181818;stroke-width:1.0;" x1="483.5" x2="991.5" y1="315.4219" y2="315.4219"/><text fill="#000000" font-family="sans-serif" font-size="13" lengthAdjust="spacing" textLength="209" x="490.5" y="310.5654">creerCommande(panier.lignes, total)</text><polygon fill="#181818" points="494.5,341.7734,484.5,345.7734,494.5,349.7734,490.5,345.7734" style="stroke:#181818;stroke-width:1.0;"/><line style="stroke:#181818;stroke-width:1.0;stroke-dasharray:2.0,2.0;" x1="488.5" x2="996.5" y1="345.7734" y2="345.7734"/><text fill="#000000" font-family="sans-serif" font-size="13" lengthAdjust="spacing" textLength="122" x="500.5" y="340.917">Commande C1 cr&#233;&#233;e</text><polygon fill="#181818" points="835.5,372.125,845.5,376.125,835.5,380.125,839.5,376.125" style="stroke:#181818;stroke-width:1.0;"/><line style="stroke:#181818;stroke-width:1.0;" x1="483.5" x2="841.5" y1="376.125" y2="376.125"/><text fill="#000000" font-family="sans-serif" font-size="13" lengthAdjust="spacing" textLength="213" x="490.5" y="371.2686">transmettrePaiement(montant, carte)</text><path d="M112,391.125 L173,391.125 L173,399.4766 L163,409.4766 L112,409.4766 L112,391.125 " fill="#EEEEEE" style="stroke:#000000;stroke-width:1.5;"/><rect fill="none" height="412.4063" style="stroke:#000000;stroke-width:1.5;" width="1179" x="112" y="391.125"/><text fill="#000000" font-family="sans-serif" font-size="13" font-weight="bold" lengthAdjust="spacing" textLength="16" x="127" y="405.6201">alt</text><text fill="#000000" font-family="sans-serif" font-size="11" font-weight="bold" lengthAdjust="spacing" textLength="128" x="188" y="404.5439">[Transaction Accept&#233;e]</text><polygon fill="#181818" points="494.5,427.8281,484.5,431.8281,494.5,435.8281,490.5,431.8281" style="stroke:#181818;stroke-width:1.0;"/><line style="stroke:#181818;stroke-width:1.0;stroke-dasharray:2.0,2.0;" x1="488.5" x2="846.5" y1="431.8281" y2="431.8281"/><text fill="#000000" font-family="sans-serif" font-size="13" lengthAdjust="spacing" textLength="139" x="500.5" y="426.9717">Confirmation : Accept&#233;e</text><polygon fill="#181818" points="985.5,458.1797,995.5,462.1797,985.5,466.1797,989.5,462.1797" style="stroke:#181818;stroke-width:1.0;"/><line style="stroke:#181818;stroke-width:1.0;" x1="483.5" x2="991.5" y1="462.1797" y2="462.1797"/><text fill="#000000" font-family="sans-serif" font-size="13" lengthAdjust="spacing" textLength="207" x="490.5" y="457.3232">majCommande(C1, statut="Pay&#233;e")</text><path d="M395,477.1797 L468,477.1797 L468,485.5313 L458,495.5313 L395,495.5313 L395,477.1797 " fill="#EEEEEE" style="stroke:#000000;stroke-width:1.5;"/><rect fill="none" height="79.0547" style="stroke:#000000;stroke-width:1.5;" width="359.5" x="395" y="477.1797"/><text fill="#000000" font-family="sans-serif" font-size="13" font-weight="bold" lengthAdjust="spacing" textLength="28" x="410" y="491.6748">loop</text><text fill="#000000" font-family="sans-serif" font-size="11" font-weight="bold" lengthAdjust="spacing" textLength="162" x="483" y="490.5986">[Pour chaque ligne du panier]</text><polygon fill="#181818" points="682.5,513.8828,692.5,517.8828,682.5,521.8828,686.5,517.8828" style="stroke:#181818;stroke-width:1.0;"/><line style="stroke:#181818;stroke-width:1.0;" x1="483.5" x2="688.5" y1="517.8828" y2="517.8828"/><text fill="#000000" font-family="sans-serif" font-size="13" lengthAdjust="spacing" textLength="111" x="490.5" y="513.0264">deduireStock(ligne)</text><polygon fill="#181818" points="494.5,544.2344,484.5,548.2344,494.5,552.2344,490.5,548.2344" style="stroke:#181818;stroke-width:1.0;"/><line style="stroke:#181818;stroke-width:1.0;stroke-dasharray:2.0,2.0;" x1="488.5" x2="693.5" y1="548.2344" y2="548.2344"/><text fill="#000000" font-family="sans-serif" font-size="13" lengthAdjust="spacing" textLength="95" x="500.5" y="543.3779">Stock mis &#224; jour</text><polygon fill="#181818" points="985.5,581.5859,995.5,585.5859,985.5,589.5859,989.5,585.5859" style="stroke:#181818;stroke-width:1.0;"/><line style="stroke:#181818;stroke-width:1.0;" x1="483.5" x2="991.5" y1="585.5859" y2="585.5859"/><text fill="#000000" font-family="sans-serif" font-size="13" lengthAdjust="spacing" textLength="149" x="490.5" y="580.7295">supprimerPanier(idPanier)</text><path d="M1002,598.5859 L1002,624.5859 L1281,624.5859 L1281,608.5859 L1271,598.5859 L1002,598.5859 " fill="#FEFFDD" style="stroke:#181818;stroke-width:0.5;"/><path d="M1271,598.5859 L1271,608.5859 L1281,608.5859 L1271,598.5859 " fill="#FEFFDD" style="stroke:#181818;stroke-width:0.5;"/><text fill="#000000" font-family="sans-serif" font-size="13" lengthAdjust="spacing" textLength="258" x="1008" y="617.0811">Commande -&gt; "Pay&#233;e"\n(changement d'&#233;tat)</text><path d="M699,634.9375 L699,660.9375 L972,660.9375 L972,644.9375 L962,634.9375 L699,634.9375 " fill="#FEFFDD" style="stroke:#181818;stroke-width:0.5;"/><path d="M962,634.9375 L962,644.9375 L972,644.9375 L962,634.9375 " fill="#FEFFDD" style="stroke:#181818;stroke-width:0.5;"/><text fill="#000000" font-family="sans-serif" font-size="13" lengthAdjust="spacing" textLength="252" x="705" y="653.4326">Stock jeu d&#233;cr&#233;ment&#233;\n(changement d'&#233;tat)</text><polygon fill="#181818" points="200.5,684.6406,190.5,688.6406,200.5,692.6406,196.5,688.6406" style="stroke:#181818;stroke-width:1.0;"/><line style="stroke:#181818;stroke-width:1.0;" x1="194.5" x2="482.5" y1="688.6406" y2="688.6406"/><text fill="#000000" font-family="sans-serif" font-size="13" lengthAdjust="spacing" textLength="151" x="206.5" y="683.7842">afficherConfirmation(C1.id)</text><line style="stroke:#000000;stroke-width:1.0;stroke-dasharray:2.0,2.0;" x1="112" x2="1291" y1="697.6406" y2="697.6406"/><text fill="#000000" font-family="sans-serif" font-size="11" font-weight="bold" lengthAdjust="spacing" textLength="122" x="117" y="709.0596">[Transaction Refus&#233;e]</text><polygon fill="#181818" points="494.5,730.8281,484.5,734.8281,494.5,738.8281,490.5,734.8281" style="stroke:#181818;stroke-width:1.0;"/><line style="stroke:#181818;stroke-width:1.0;stroke-dasharray:2.0,2.0;" x1="488.5" x2="846.5" y1="734.8281" y2="734.8281"/><text fill="#000000" font-family="sans-serif" font-size="13" lengthAdjust="spacing" textLength="94" x="500.5" y="729.9717">Erreur : Refus&#233;e</text><polygon fill="#181818" points="985.5,761.1797,995.5,765.1797,985.5,769.1797,989.5,765.1797" style="stroke:#181818;stroke-width:1.0;"/><line style="stroke:#181818;stroke-width:1.0;" x1="483.5" x2="991.5" y1="765.1797" y2="765.1797"/><text fill="#000000" font-family="sans-serif" font-size="13" lengthAdjust="spacing" textLength="217" x="490.5" y="760.3232">majCommande(C1, statut="Annul&#233;e")</text><polygon fill="#181818" points="200.5,791.5313,190.5,795.5313,200.5,799.5313,196.5,795.5313" style="stroke:#181818;stroke-width:1.0;"/><line style="stroke:#181818;stroke-width:1.0;" x1="194.5" x2="482.5" y1="795.5313" y2="795.5313"/><text fill="#000000" font-family="sans-serif" font-size="13" lengthAdjust="spacing" textLength="139" x="206.5" y="790.6748">afficherErreurPaiement()</text><line style="stroke:#000000;stroke-width:1.0;stroke-dasharray:2.0,2.0;" x1="102" x2="1301" y1="811.5313" y2="811.5313"/><text fill="#000000" font-family="sans-serif" font-size="11" font-weight="bold" lengthAdjust="spacing" textLength="198" x="107" y="822.9502">[Disponibilit&#233; KO (stock insuffisant)]</text><polygon fill="#181818" points="494.5,844.7188,484.5,848.7188,494.5,852.7188,490.5,848.7188" style="stroke:#181818;stroke-width:1.0;"/><line style="stroke:#181818;stroke-width:1.0;stroke-dasharray:2.0,2.0;" x1="488.5" x2="693.5" y1="848.7188" y2="848.7188"/><text fill="#000000" font-family="sans-serif" font-size="13" lengthAdjust="spacing" textLength="143" x="500.5" y="843.8623">Erreur : Stock insuffisant</text><polygon fill="#181818" points="200.5,875.0703,190.5,879.0703,200.5,883.0703,196.5,879.0703" style="stroke:#181818;stroke-width:1.0;"/><line style="stroke:#181818;stroke-width:1.0;" x1="194.5" x2="482.5" y1="879.0703" y2="879.0703"/><text fill="#000000" font-family="sans-serif" font-size="13" lengthAdjust="spacing" textLength="118" x="206.5" y="874.2139">afficherErreurStock()</text><rect fill="#EEEEEE" height="3" style="stroke:#EEEEEE;stroke-width:1.0;" width="1311" x="0" y="915.2461"/><line style="stroke:#000000;stroke-width:1.0;" x1="0" x2="1311" y1="915.2461" y2="915.2461"/><line style="stroke:#000000;stroke-width:1.0;" x1="0" x2="1311" y1="918.2461" y2="918.2461"/><rect fill="#EEEEEE" height="24.3516" style="stroke:#000000;stroke-width:2.0;" width="110" x="600.5" y="904.0703"/><text fill="#000000" font-family="sans-serif" font-size="13" font-weight="bold" lengthAdjust="spacing" textLength="92" x="606.5" y="921.5654">Affichage final</text><polygon fill="#181818" points="43.5,973.125,33.5,977.125,43.5,981.125,39.5,977.125" style="stroke:#181818;stroke-width:1.0;"/><line style="stroke:#181818;stroke-width:1.0;" x1="37.5" x2="188.5" y1="977.125" y2="977.125"/><text fill="#000000" font-family="sans-serif" font-size="13" lengthAdjust="spacing" textLength="100" x="49.5" y="955.917">Affichage r&#233;sultat</text><text fill="#000000" font-family="sans-serif" font-size="13" lengthAdjust="spacing" textLength="133" x="49.5" y="972.2686">(confirmation ou erreur)</text><!--SRC=[ZLJ1Rk8m4BtxAqPSIYHQgLTKa21mOBiIg9JRNjna0cuJEsixxV89-nTxpNt_83-sOvja0s9NvUJWDs_cpRonUHEov9eNa0k9zbWYb2e_kWzckZk3tokK2SwqLX_F1v6yIJG6xgz0DbnRaOYIImkLJ54xAiXuRlg4FB5AR-qnH-0VQ5I1ZFd_8Cu5IilA7irW9ItgZ2S8EojoORZ5IW-06rZjpf6nabOtltEwXrWL1QSAF32Epu5RrE-22BTM9MyUuK_NGHikiA2gOBZyGPL8Z7p4XX-lu-UBXGSivem5FN0xfLfXxEHHdy1GVGEAHptu9eVy7HCGCbC64kB3Y16M8kAO8eGKLg1kQnYAD52EW9BInIX4jlSHDJAti12cL5AyKBjiKyFwaO6Z8rAlatZVKOkCulj870REkrpiQS8H1GNuRLlDKrCJsY0Tmmqn4qegYw35_c11PQxPGBzODpMtGibk5AJLM6uh2nCOB2LmQwba7BX4A5DFmxfA5tFAacX4tSQVbpS2gopFNJ11kn9RCCJt5DtKJTtZf9uJn6ekJO7MQkpwMf1rk6lhQGGKuXhvxA1aJITZbYHOMiVdv3cgNbAP2Lq4kUCBP4zEmLyxCV7z248x9iuBX1xuj00tC9rEORxUnL-NCFkotZqtFvUmYbVmyF3W4RbI9MmKsIWvSESetn98gvChFEXov2ccbT3eFuS-83hXBgOSFWjXeFa5hvJ5msX2x5AFgSfIYyBvqwKbTuR3ISYvBsWVJcMr8oAQLZfvWwJ8VTYqzAQfgJLHcxYpnYLdMDk-YbUi86rgDtf7rTIVPWww_9xoB1F9mJdlxrnfO7SYzSgGdhCpQpnXLfchpbXgxLwZyJda4vQOILdbmHJ_A2vGTmu-RH5ZlhgB5-1n3RHxhZz2cee839Vsoe9tvMulmUm_DGHBHSoddqnWvc_vdbv-8NaEaqdxf8NdSDn3q9nCbPDeDwV-6gaAqBD7x0y0]--></g></svg>