<?xml version="1.0" encoding="us-ascii" standalone="no"?><svg xmlns="http://www.w3.org/2000/svg" xmlns:xlink="http://www.w3.org/1999/xlink" contentStyleType="text/css" height="1914px" preserveAspectRatio="none" style="width:1083px;height:1914px;background:#FFFFFF;" version="1.1" viewBox="0 0 1083 1914" width="1083px" zoomAndPan="magnify"><defs/><g><!--cluster Catalogue Jeux--><g id="cluster_Catalogue Jeux"><rect fill="none" height="341" rx="2.5" ry="2.5" style="stroke:#181818;stroke-width:1.0;" width="648" x="353" y="7"/><text fill="#000000" font-family="sans-serif" font-size="14" font-weight="bold" lengthAdjust="spacing" textLength="109" x="622.5" y="23.5332">Catalogue Jeux</text></g><!--cluster Compte & Panier--><g id="cluster_Compte &amp; Panier"><rect fill="none" height="751" rx="2.5" ry="2.5" style="stroke:#181818;stroke-width:1.0;" width="222" x="412" y="419"/><text fill="#000000" font-family="sans-serif" font-size="14" font-weight="bold" lengthAdjust="spacing" textLength="117" x="464.5" y="435.5332">Compte &amp; Panier</text></g><!--cluster Communication & Emails--><g id="cluster_Communication &amp; Emails"><rect fill="none" height="449" rx="2.5" ry="2.5" style="stroke:#181818;stroke-width:1.0;" width="275" x="385.5" y="1194"/><text fill="#000000" font-family="sans-serif" font-size="14" font-weight="bold" lengthAdjust="spacing" textLength="171" x="437.5" y="1210.5332">Communication &amp; Emails</text></g><!--cluster Administration--><g id="cluster_Administration"><rect fill="none" height="241" rx="2.5" ry="2.5" style="stroke:#181818;stroke-width:1.0;" width="213" x="416.5" y="1667"/><text fill="#000000" font-family="sans-serif" font-size="14" font-weight="bold" lengthAdjust="spacing" textLength="101" x="472.5" y="1683.5332">Administration</text></g><g id="elem_UC_Browse"><ellipse cx="522.8974" cy="63.9795" fill="#F1F1F1" rx="90.3974" ry="20.4795" style="stroke:#181818;stroke-width:0.5;"/><text fill="#000000" font-family="sans-serif" font-size="14" lengthAdjust="spacing" textLength="139" x="453.3974" y="67.708">Parcourir le catalogue</text></g><g id="elem_UC_Filter"><ellipse cx="522.9267" cy="138.7853" fill="#F1F1F1" rx="84.4267" ry="19.2853" style="stroke:#181818;stroke-width:0.5;"/><text fill="#000000" font-family="sans-serif" font-size="14" lengthAdjust="spacing" textLength="125" x="460.4267" y="142.5139">Filtrer par cat&#233;gorie</text></g><g id="elem_UC_Search"><ellipse cx="523.097" cy="212.1194" fill="#F1F1F1" rx="81.097" ry="18.6194" style="stroke:#181818;stroke-width:0.5;"/><text fill="#000000" font-family="sans-serif" font-size="14" lengthAdjust="spacing" textLength="117" x="464.0843" y="215.9982">Rechercher un jeu</text></g><g id="elem_UC_Detail"><ellipse cx="522.8592" cy="299.1718" fill="#F1F1F1" rx="153.8592" ry="33.1718" style="stroke:#181818;stroke-width:0.5;"/><text fill="#000000" font-family="sans-serif" font-size="14" lengthAdjust="spacing" textLength="118" x="463.8592" y="294.0957">Consulter fiche jeu</text><text fill="#000000" font-family="sans-serif" font-size="14" lengthAdjust="spacing" textLength="233" x="406.3592" y="311.705">(bande-annonce, image, description)</text></g><g id="elem_UC_AddCart"><ellipse cx="906.896" cy="306.9792" fill="#F1F1F1" rx="77.896" ry="17.9792" style="stroke:#181818;stroke-width:0.5;"/><text fill="#000000" font-family="sans-serif" font-size="14" lengthAdjust="spacing" textLength="109" x="850.4355" y="311.2466">Ajouter au panier</text></g><g id="elem_UC_Signup"><ellipse cx="523.2363" cy="540.2473" fill="#F1F1F1" rx="76.7363" ry="17.7473" style="stroke:#181818;stroke-width:0.5;"/><text fill="#000000" font-family="sans-serif" font-size="14" lengthAdjust="spacing" textLength="106" x="467.7006" y="544.6555">Cr&#233;er un compte</text></g><g id="elem_UC_Login"><ellipse cx="522.7688" cy="471.1538" fill="#F1F1F1" rx="68.7688" ry="16.1538" style="stroke:#181818;stroke-width:0.5;"/><text fill="#000000" font-family="sans-serif" font-size="14" lengthAdjust="spacing" textLength="84" x="477.7688" y="475.6704">Se connecter</text></g><g id="elem_UC_ViewCart"><ellipse cx="523.1887" cy="689.0377" fill="#F1F1F1" rx="80.6887" ry="18.5377" style="stroke:#181818;stroke-width:0.5;"/><text fill="#000000" font-family="sans-serif" font-size="14" lengthAdjust="spacing" textLength="116" x="464.5015" y="692.9661">Acc&#233;der au panier</text></g><g id="elem_UC_EditQty"><ellipse cx="523.0785" cy="1065.2157" fill="#F1F1F1" rx="79.0785" ry="18.2157" style="stroke:#181818;stroke-width:0.5;"/><text fill="#000000" font-family="sans-serif" font-size="14" lengthAdjust="spacing" textLength="112" x="465.6751" y="1069.3395">Modifier quantit&#233;s</text></g><g id="elem_UC_RemoveItem"><ellipse cx="523.1904" cy="613.9381" fill="#F1F1F1" rx="95.1904" ry="21.4381" style="stroke:#181818;stroke-width:0.5;"/><text fill="#000000" font-family="sans-serif" font-size="14" lengthAdjust="spacing" textLength="150" x="448.1904" y="617.6666">Retirer un jeu du panier</text></g><g id="elem_UC_Checkout"><ellipse cx="523.097" cy="917.1194" fill="#F1F1F1" rx="81.097" ry="18.6194" style="stroke:#181818;stroke-width:0.5;"/><text fill="#000000" font-family="sans-serif" font-size="14" lengthAdjust="spacing" textLength="117" x="464.0843" y="920.9982">Passer commande</text></g><g id="elem_UC_PayPal"><ellipse cx="523.1203" cy="1135.8241" fill="#F1F1F1" rx="77.1203" ry="17.8241" style="stroke:#181818;stroke-width:0.5;"/><text fill="#000000" font-family="sans-serif" font-size="14" lengthAdjust="spacing" textLength="107" x="467.2783" y="1140.1856">Payer via PayPal</text></g><g id="elem_UC_Confirm"><ellipse cx="523.035" cy="990.807" fill="#F1F1F1" rx="89.535" ry="20.307" style="stroke:#181818;stroke-width:0.5;"/><text fill="#000000" font-family="sans-serif" font-size="14" lengthAdjust="spacing" textLength="137" x="454.535" y="994.5355">Recevoir confirmation</text></g><g id="elem_UC_CalcTotal"><ellipse cx="523.2427" cy="760.1485" fill="#F1F1F1" rx="73.7427" ry="17.1485" style="stroke:#181818;stroke-width:0.5;"/><text fill="#000000" font-family="sans-serif" font-size="14" lengthAdjust="spacing" textLength="98" x="471.2427" y="764.6651">Calculer le total</text></g><g id="elem_UC_Stock"><ellipse cx="522.876" cy="829.0752" fill="#F1F1F1" rx="73.376" ry="17.0752" style="stroke:#181818;stroke-width:0.5;"/><text fill="#000000" font-family="sans-serif" font-size="14" lengthAdjust="spacing" textLength="97" x="471.376" y="833.5918">V&#233;rifier le stock</text></g><g id="elem_UC_VerifMail"><ellipse cx="522.9418" cy="1529.9884" fill="#F1F1F1" rx="105.4418" ry="23.4884" style="stroke:#181818;stroke-width:0.5;"/><text fill="#000000" font-family="sans-serif" font-size="14" lengthAdjust="spacing" textLength="173" x="436.4418" y="1533.7169">Envoyer mail de v&#233;rification</text></g><g id="elem_UC_ValidateEmail"><ellipse cx="523.1395" cy="1338.1279" fill="#F1F1F1" rx="103.6395" ry="23.1279" style="stroke:#181818;stroke-width:0.5;"/><text fill="#000000" font-family="sans-serif" font-size="14" lengthAdjust="spacing" textLength="169" x="438.6395" y="1341.8564">V&#233;rifier son adresse e-mail</text></g><g id="elem_UC_Newsletter"><ellipse cx="522.7614" cy="1254.8523" fill="#F1F1F1" rx="112.2614" ry="24.8523" style="stroke:#181818;stroke-width:0.5;"/><text fill="#000000" font-family="sans-serif" font-size="14" lengthAdjust="spacing" textLength="188" x="428.7614" y="1258.5808">G&#233;rer abonnement newsletter</text></g><g id="elem_UC_SendNewsletter"><ellipse cx="522.8351" cy="1607.867" fill="#F1F1F1" rx="82.3351" ry="18.867" style="stroke:#181818;stroke-width:0.5;"/><text fill="#000000" font-family="sans-serif" font-size="14" lengthAdjust="spacing" textLength="120" x="462.8351" y="1611.5955">Envoyer newsletter</text></g><g id="elem_UC_ContactPay"><ellipse cx="522.9823" cy="1445.1965" fill="#F1F1F1" rx="121.4823" ry="26.6965" style="stroke:#181818;stroke-width:0.5;"/><text fill="#000000" font-family="sans-serif" font-size="14" lengthAdjust="spacing" textLength="208" x="418.9823" y="1448.925">Contacter le service de paiement</text></g><g id="elem_UC_ManageCatalog"><ellipse cx="523.0075" cy="1722.2015" fill="#F1F1F1" rx="81.5075" ry="18.7015" style="stroke:#181818;stroke-width:0.5;"/><text fill="#000000" font-family="sans-serif" font-size="14" lengthAdjust="spacing" textLength="118" x="463.6675" y="1726.0304">G&#233;rer le catalogue</text></g><g id="elem_UC_ManageOrders"><ellipse cx="522.8974" cy="1795.9795" fill="#F1F1F1" rx="90.3974" ry="20.4795" style="stroke:#181818;stroke-width:0.5;"/><text fill="#000000" font-family="sans-serif" font-size="14" lengthAdjust="spacing" textLength="139" x="453.3974" y="1799.708">G&#233;rer les commandes</text></g><g id="elem_UC_ManageUsers"><ellipse cx="522.9661" cy="1871.7932" fill="#F1F1F1" rx="86.9661" ry="19.7932" style="stroke:#181818;stroke-width:0.5;"/><text fill="#000000" font-family="sans-serif" font-size="14" lengthAdjust="spacing" textLength="131" x="457.4661" y="1875.5217">G&#233;rer les utilisateurs</text></g><!--entity Visitor--><g id="elem_Visitor"><ellipse cx="84" cy="323.5" fill="#F1F1F1" rx="8" ry="8" style="stroke:#181818;stroke-width:0.5;"/><path d="M84,331.5 L84,358.5 M71,339.5 L97,339.5 M84,358.5 L71,373.5 M84,358.5 L97,373.5 " fill="none" style="stroke:#181818;stroke-width:0.5;"/><text fill="#000000" font-family="sans-serif" font-size="14" lengthAdjust="spacing" textLength="47" x="60.5" y="389.5332">Visiteur</text></g><!--entity Client--><g id="elem_Client"><ellipse cx="84" cy="788.5" fill="#F1F1F1" rx="8" ry="8" style="stroke:#181818;stroke-width:0.5;"/><path d="M84,796.5 L84,823.5 M71,804.5 L97,804.5 M84,823.5 L71,838.5 M84,823.5 L97,838.5 " fill="none" style="stroke:#181818;stroke-width:0.5;"/><text fill="#000000" font-family="sans-serif" font-size="14" lengthAdjust="spacing" textLength="106" x="31" y="854.5332">Client authentifi&#233;</text></g><!--entity Admin--><g id="elem_Admin"><ellipse cx="84" cy="1691.5" fill="#F1F1F1" rx="8" ry="8" style="stroke:#181818;stroke-width:0.5;"/><path d="M84,1699.5 L84,1726.5 M71,1707.5 L97,1707.5 M84,1726.5 L71,1741.5 M84,1726.5 L97,1741.5 " fill="none" style="stroke:#181818;stroke-width:0.5;"/><text fill="#000000" font-family="sans-serif" font-size="14" lengthAdjust="spacing" textLength="91" x="38.5" y="1757.5332">Administrateur</text></g><!--entity PSP--><g id="elem_PSP"><ellipse cx="84" cy="1352.5" fill="#F1F1F1" rx="8" ry="8" style="stroke:#181818;stroke-width:0.5;"/><path d="M84,1360.5 L84,1387.5 M71,1368.5 L97,1368.5 M84,1387.5 L71,1402.5 M84,1387.5 L97,1402.5 " fill="none" style="stroke:#181818;stroke-width:0.5;"/><text fill="#000000" font-family="sans-serif" font-size="14" lengthAdjust="spacing" textLength="44" x="62" y="1418.5332">PayPal</text></g><!--entity MailSrv--><g id="elem_MailSrv"><ellipse cx="84" cy="1522.5" fill="#F1F1F1" rx="8" ry="8" style="stroke:#181818;stroke-width:0.5;"/><path d="M84,1530.5 L84,1557.5 M71,1538.5 L97,1538.5 M84,1557.5 L71,1572.5 M84,1557.5 L97,1572.5 " fill="none" style="stroke:#181818;stroke-width:0.5;"/><text fill="#000000" font-family="sans-serif" font-size="14" lengthAdjust="spacing" textLength="156" x="6" y="1588.5332">Service d'envoi d'e-mails</text></g><g id="elem_GMN68"><path d="M738,667.5 L738,685 L603.61,689 L738,693 L738,710.2031 A0,0 0 0 0 738,710.2031 L1076,710.2031 A0,0 0 0 0 1076,710.2031 L1076,677.5 L1066,667.5 L738,667.5 A0,0 0 0 0 738,667.5 " fill="#FEFFDD" style="stroke:#181818;stroke-width:0.5;"/><path d="M1066,667.5 L1066,677.5 L1076,677.5 L1066,667.5 " fill="#FEFFDD" style="stroke:#181818;stroke-width:0.5;"/><text fill="#000000" font-family="sans-serif" font-size="13" lengthAdjust="spacing" textLength="203" x="744" y="685.9951">Pr&#233;condition : utilisateur authentifi&#233;</text><text fill="#000000" font-family="sans-serif" font-size="13" lengthAdjust="spacing" textLength="317" x="744" y="702.3467">Sinon : rediriger vers "Se connecter / Cr&#233;er un compte"</text></g><g id="elem_GMN71"><path d="M739.5,510.5 L739.5,536 L599.93,540 L739.5,544 L739.5,569.5547 A0,0 0 0 0 739.5,569.5547 L1074.5,569.5547 A0,0 0 0 0 1074.5,569.5547 L1074.5,520.5 L1064.5,510.5 L739.5,510.5 A0,0 0 0 0 739.5,510.5 " fill="#FEFFDD" style="stroke:#181818;stroke-width:0.5;"/><path d="M1064.5,510.5 L1064.5,520.5 L1074.5,520.5 L1064.5,510.5 " fill="#FEFFDD" style="stroke:#181818;stroke-width:0.5;"/><text fill="#000000" font-family="sans-serif" font-size="13" lengthAdjust="spacing" textLength="146" x="745.5" y="528.9951">&#192; la cr&#233;ation du compte :</text><text fill="#000000" font-family="sans-serif" font-size="13" lengthAdjust="spacing" textLength="229" x="745.5" y="545.3467">- Envoi d'un mail de v&#233;rification (include)</text><text fill="#000000" font-family="sans-serif" font-size="13" lengthAdjust="spacing" textLength="314" x="745.5" y="561.6982">- L'utilisateur peut ensuite v&#233;rifier son adresse (extend)</text></g><g id="elem_GMN74"><path d="M786.5,1225.5 L786.5,1251 L635.52,1255 L786.5,1259 L786.5,1284.5547 A0,0 0 0 0 786.5,1284.5547 L1027.5,1284.5547 A0,0 0 0 0 1027.5,1284.5547 L1027.5,1235.5 L1017.5,1225.5 L786.5,1225.5 A0,0 0 0 0 786.5,1225.5 " fill="#FEFFDD" style="stroke:#181818;stroke-width:0.5;"/><path d="M1017.5,1225.5 L1017.5,1235.5 L1027.5,1235.5 L1017.5,1225.5 " fill="#FEFFDD" style="stroke:#181818;stroke-width:0.5;"/><text fill="#000000" font-family="sans-serif" font-size="13" lengthAdjust="spacing" textLength="220" x="792.5" y="1243.9951">Permet de s'abonner / se d&#233;sabonner.</text><text fill="#000000" font-family="sans-serif" font-size="13" lengthAdjust="spacing" textLength="174" x="792.5" y="1260.3467">Entra&#238;ne l'envoi d'e-mails via le</text><text fill="#000000" font-family="sans-serif" font-size="13" lengthAdjust="spacing" textLength="141" x="792.5" y="1276.6982">service d'envoi d'e-mails.</text></g><g id="elem_GMN77"><path d="M748.5,1423.5 L748.5,1441 L644.6,1445 L748.5,1449 L748.5,1466.2031 A0,0 0 0 0 748.5,1466.2031 L1065.5,1466.2031 A0,0 0 0 0 1065.5,1466.2031 L1065.5,1433.5 L1055.5,1423.5 L748.5,1423.5 A0,0 0 0 0 748.5,1423.5 " fill="#FEFFDD" style="stroke:#181818;stroke-width:0.5;"/><path d="M1055.5,1423.5 L1055.5,1433.5 L1065.5,1433.5 L1055.5,1423.5 " fill="#FEFFDD" style="stroke:#181818;stroke-width:0.5;"/><text fill="#000000" font-family="sans-serif" font-size="13" lengthAdjust="spacing" textLength="229" x="754.5" y="1441.9951">Utilis&#233; en cas de probl&#232;me de paiement</text><text fill="#000000" font-family="sans-serif" font-size="13" lengthAdjust="spacing" textLength="296" x="754.5" y="1458.3467">(remboursement, &#233;chec de transaction, litige, etc.).</text></g><!--link Visitor to UC_Browse--><g id="link_Visitor_UC_Browse"><path d="M107.69,319.43 C139.1,271.58 192,191 192,191 C192,191 345,102 345,102 C345,102 400.3038,90.13 450.7238,79.3 " fill="none" id="Visitor-to-UC_Browse" style="stroke:#181818;stroke-width:1.0;"/><polygon fill="#181818" points="456.59,78.04,446.9507,76.0193,451.7015,79.09,448.6307,83.8409,456.59,78.04" style="stroke:#181818;stroke-width:1.0;"/></g><!--link Visitor to UC_Filter--><g id="link_Visitor_UC_Filter"><path d="M107.69,332.58 C139.1,302.93 192,253 192,253 C192,253 345,176 345,176 C345,176 402.7671,163.9285 453.7271,153.2685 " fill="none" id="Visitor-to-UC_Filter" style="stroke:#181818;stroke-width:1.0;"/><polygon fill="#181818" points="459.6,152.04,449.9717,149.9675,454.7059,153.0638,451.6097,157.798,459.6,152.04" style="stroke:#181818;stroke-width:1.0;"/></g><!--link Visitor to UC_Search--><g id="link_Visitor_UC_Search"><path d="M107.69,343.82 C139.1,329.73 192,306 192,306 C192,306 345,248 345,248 C345,248 404.4304,235.9161 455.7004,225.4861 " fill="none" id="Visitor-to-UC_Search" style="stroke:#181818;stroke-width:1.0;"/><polygon fill="#181818" points="461.58,224.29,451.9632,222.1644,456.6804,225.2867,453.558,230.0039,461.58,224.29" style="stroke:#181818;stroke-width:1.0;"/></g><!--link Visitor to UC_Detail--><g id="link_Visitor_UC_Detail"><path d="M107.57,351.16 C159.18,344.66 283.127,329.0694 383.857,316.3894 " fill="none" id="Visitor-to-UC_Detail" style="stroke:#181818;stroke-width:1.0;"/><polygon fill="#181818" points="389.81,315.64,380.3809,312.7954,384.8492,316.2645,381.3801,320.7327,389.81,315.64" style="stroke:#181818;stroke-width:1.0;"/></g><!--link Visitor to UC_AddCart--><g id="link_Visitor_UC_AddCart"><path d="M107.84,353.81 C216.64,352.89 677,349 677,349 C677,349 771.7884,331.6122 839.6284,319.1722 " fill="none" id="Visitor-to-UC_AddCart" style="stroke:#181818;stroke-width:1.0;"/><polygon fill="#181818" points="845.53,318.09,835.9561,315.7789,840.612,318.9918,837.3991,323.6477,845.53,318.09" style="stroke:#181818;stroke-width:1.0;"/></g><!--link Visitor to UC_Signup--><g id="link_Visitor_UC_Signup"><path d="M107.69,373.09 C139.1,399.51 192,444 192,444 C192,444 345,505 345,505 C345,505 406.964,517.256 458.644,527.476 " fill="none" id="Visitor-to-UC_Signup" style="stroke:#181818;stroke-width:1.0;"/><polygon fill="#181818" points="464.53,528.64,456.477,522.97,459.625,527.67,454.925,530.818,464.53,528.64" style="stroke:#181818;stroke-width:1.0;"/></g><!--link Visitor to UC_Login--><g id="link_Visitor_UC_Login"><path d="M107.69,366.09 C139.1,382.82 192,411 192,411 C192,411 368.8369,443.1462 462.3469,460.1562 " fill="none" id="Visitor-to-UC_Login" style="stroke:#181818;stroke-width:1.0;"/><polygon fill="#181818" points="468.25,461.23,460.1112,455.6839,463.3307,460.3352,458.6794,463.5547,468.25,461.23" style="stroke:#181818;stroke-width:1.0;"/></g><!--link Visitor to UC_Newsletter--><g id="link_Visitor_UC_Newsletter"><path d="M102.79,393.24 C133.21,460.34 192,590 192,590 C192,590 337,834 337,834 C337,834 345,1170 345,1170 C345,1170 416.7314,1204.4425 469.1614,1229.6225 " fill="none" id="Visitor-to-UC_Newsletter" style="stroke:#181818;stroke-width:1.0;"/><polygon fill="#181818" points="474.57,1232.22,468.1888,1224.718,470.0628,1230.0554,464.7254,1231.9294,474.57,1232.22" style="stroke:#181818;stroke-width:1.0;"/></g><!--link Client to UC_ViewCart--><g id="link_Client_UC_ViewCart"><path d="M137.25,797.03 C164.41,785.6 192,774 192,774 C192,774 345,726 345,726 C345,726 405.277,713.3978 456.697,702.6478 " fill="none" id="Client-to-UC_ViewCart" style="stroke:#181818;stroke-width:1.0;"/><polygon fill="#181818" points="462.57,701.42,452.9419,699.3464,457.6758,702.4432,454.579,707.1771,462.57,701.42" style="stroke:#181818;stroke-width:1.0;"/></g><!--link Client to UC_EditQty--><g id="link_Client_UC_EditQty"><path d="M99.99,858.23 C129.44,935.29 192,1099 192,1099 C192,1099 337,1099 337,1099 C337,1099 401.1188,1087.2141 455.0088,1077.3141 " fill="none" id="Client-to-UC_EditQty" style="stroke:#181818;stroke-width:1.0;"/><polygon fill="#181818" points="460.91,1076.23,451.3354,1073.922,455.9923,1077.1334,452.7809,1081.7903,460.91,1076.23" style="stroke:#181818;stroke-width:1.0;"/></g><!--link Client to UC_RemoveItem--><g id="link_Client_UC_RemoveItem"><path d="M129.45,779.95 C158.85,754.13 192,725 192,725 C192,725 345,653 345,653 C345,653 398.5005,641.211 448.4705,630.201 " fill="none" id="Client-to-UC_RemoveItem" style="stroke:#181818;stroke-width:1.0;"/><polygon fill="#181818" points="454.33,628.91,444.6801,626.9402,449.4471,629.9859,446.4015,634.7528,454.33,628.91" style="stroke:#181818;stroke-width:1.0;"/></g><!--link Client to UC_Checkout--><g id="link_Client_UC_Checkout"><path d="M137.25,809.72 C164.41,804.9 192,800 192,800 C192,800 337,800 337,800 C337,800 345,864 345,864 C345,864 415.0221,884.9689 467.4221,900.6589 " fill="none" id="Client-to-UC_Checkout" style="stroke:#181818;stroke-width:1.0;"/><polygon fill="#181818" points="473.17,902.38,465.6956,895.9665,468.3801,900.9458,463.4008,903.6303,473.17,902.38" style="stroke:#181818;stroke-width:1.0;"/></g><!--link Client to UC_Confirm--><g id="link_Client_UC_Confirm"><path d="M137.21,823.56 C211.03,830 337,841 337,841 C337,841 345,953 345,953 C345,953 400.7138,964.9601 451.2338,975.8101 " fill="none" id="Client-to-UC_Confirm" style="stroke:#181818;stroke-width:1.0;"/><polygon fill="#181818" points="457.1,977.07,449.1406,971.2694,452.2115,976.0201,447.4607,979.091,457.1,977.07" style="stroke:#181818;stroke-width:1.0;"/></g><!--link Client to UC_ValidateEmail--><g id="link_Client_UC_ValidateEmail"><path d="M93.58,858.03 C118.97,973.59 192,1306 192,1306 C192,1306 324.368,1318.8308 421.908,1328.2908 " fill="none" id="Client-to-UC_ValidateEmail" style="stroke:#181818;stroke-width:1.0;"/><polygon fill="#181818" points="427.88,1328.87,419.3082,1324.0199,422.9034,1328.3873,418.5359,1331.9825,427.88,1328.87" style="stroke:#181818;stroke-width:1.0;"/></g><!--link Client to UC_Newsletter--><g id="link_Client_UC_Newsletter"><path d="M99.54,858.14 C128.8,936.89 192,1107 192,1107 C192,1107 374.5752,1188.885 466.7652,1230.225 " fill="none" id="Client-to-UC_Newsletter" style="stroke:#181818;stroke-width:1.0;"/><polygon fill="#181818" points="472.24,1232.68,465.6645,1225.3477,467.6777,1230.6342,462.3912,1232.6473,472.24,1232.68" style="stroke:#181818;stroke-width:1.0;"/></g><!--link Admin to UC_ManageCatalog--><g id="link_Admin_UC_ManageCatalog"><path d="M129.71,1722 C202.91,1722 343.34,1722 435.13,1722 " fill="none" id="Admin-to-UC_ManageCatalog" style="stroke:#181818;stroke-width:1.0;"/><polygon fill="#181818" points="441.13,1722,432.13,1718,436.13,1722,432.13,1726,441.13,1722" style="stroke:#181818;stroke-width:1.0;"/></g><!--link Admin to UC_ManageOrders--><g id="link_Admin_UC_ManageOrders"><path d="M129.71,1729.57 C205.31,1742.37 353.0742,1767.3984 444.0342,1782.7984 " fill="none" id="Admin-to-UC_ManageOrders" style="stroke:#181818;stroke-width:1.0;"/><polygon fill="#181818" points="449.95,1783.8,441.744,1778.3538,445.0202,1782.9654,440.4086,1786.2415,449.95,1783.8" style="stroke:#181818;stroke-width:1.0;"/></g><!--link Admin to UC_ManageUsers--><g id="link_Admin_UC_ManageUsers"><path d="M129.76,1742.5 C159.08,1755.92 192,1771 192,1771 C192,1771 345,1834 345,1834 C345,1834 401.9438,1846.2199 452.7338,1857.1299 " fill="none" id="Admin-to-UC_ManageUsers" style="stroke:#181818;stroke-width:1.0;"/><polygon fill="#181818" points="458.6,1858.39,450.6408,1852.5891,453.7115,1857.3399,448.9607,1860.4107,458.6,1858.39" style="stroke:#181818;stroke-width:1.0;"/></g><!--link Admin to UC_SendNewsletter--><g id="link_Admin_UC_SendNewsletter"><path d="M129.71,1710.34 C210.42,1689.28 374.3343,1646.5246 461.6943,1623.7346 " fill="none" id="Admin-to-UC_SendNewsletter" style="stroke:#181818;stroke-width:1.0;"/><polygon fill="#181818" points="467.5,1622.22,457.7817,1620.6214,462.6619,1623.4821,459.8012,1628.3623,467.5,1622.22" style="stroke:#181818;stroke-width:1.0;"/></g><!--link Admin to UC_ContactPay--><g id="link_Admin_UC_ContactPay"><path d="M128.81,1682.74 C202.91,1616.33 345,1489 345,1489 C345,1489 389.4973,1477.9376 436.4773,1466.2576 " fill="none" id="Admin-to-UC_ContactPay" style="stroke:#181818;stroke-width:1.0;"/><polygon fill="#181818" points="442.3,1464.81,432.6008,1463.0996,437.4477,1466.0164,434.531,1470.8633,442.3,1464.81" style="stroke:#181818;stroke-width:1.0;"/></g><!--link MailSrv to UC_VerifMail--><g id="link_MailSrv_UC_VerifMail"><path d="M162.12,1548.94 C233.91,1545.16 335.3983,1539.8255 414.2083,1535.6755 " fill="none" id="MailSrv-to-UC_VerifMail" style="stroke:#181818;stroke-width:1.0;"/><polygon fill="#181818" points="420.2,1535.36,411.0021,1531.8388,415.2069,1535.6229,411.4228,1539.8277,420.2,1535.36" style="stroke:#181818;stroke-width:1.0;"/></g><!--link MailSrv to UC_SendNewsletter--><g id="link_MailSrv_UC_SendNewsletter"><path d="M162.12,1562.71 C243.59,1572.96 365.0669,1588.2512 444.4069,1598.2312 " fill="none" id="MailSrv-to-UC_SendNewsletter" style="stroke:#181818;stroke-width:1.0;"/><polygon fill="#181818" points="450.36,1598.98,441.9296,1593.888,445.3991,1598.356,440.9312,1601.8255,450.36,1598.98" style="stroke:#181818;stroke-width:1.0;"/></g><!--link PSP to UC_PayPal--><g id="link_PSP_UC_PayPal"><path d="M106.05,1375.98 C166.62,1355.79 337,1299 337,1299 C337,1299 345,1214 345,1214 C345,1214 428.4795,1177.2097 480.2595,1154.3897 " fill="none" id="PSP-to-UC_PayPal" style="stroke:#181818;stroke-width:1.0;"/><polygon fill="#181818" points="485.75,1151.97,475.9012,1151.9393,481.1746,1153.9864,479.1275,1159.2599,485.75,1151.97" style="stroke:#181818;stroke-width:1.0;"/></g><!--link PSP to UC_ContactPay--><g id="link_PSP_UC_ContactPay"><path d="M106.14,1390.71 C137.32,1402.07 192,1422 192,1422 C192,1422 305.8245,1429.9327 401.0645,1436.5727 " fill="none" id="PSP-to-UC_ContactPay" style="stroke:#181818;stroke-width:1.0;"/><polygon fill="#181818" points="407.05,1436.99,398.35,1432.3737,402.0621,1436.6423,397.7936,1440.3544,407.05,1436.99" style="stroke:#181818;stroke-width:1.0;"/></g><!--link UC_Detail to UC_AddCart--><g id="link_UC_Detail_UC_AddCart"><path d="M676.35,302.19 C728.85,303.29 779.4213,304.3442 823.2813,305.2642 " fill="none" id="UC_Detail-to-UC_AddCart" style="stroke:#181818;stroke-width:1.0;"/><polygon fill="#181818" points="829.28,305.39,820.3659,301.2021,824.2811,305.2851,820.1981,309.2004,829.28,305.39" style="stroke:#181818;stroke-width:1.0;"/></g><!--link UC_ViewCart to UC_Login--><g id="link_UC_ViewCart_UC_Login"><path d="M462.24,676.71 C410.68,666.28 345,653 345,653 C345,653 257.5,582 257.5,582 C257.5,582 257.5,548 257.5,548 C257.5,548 345,505 345,505 C345,505 411.2667,492.3463 463.6967,482.3263 " fill="none" id="UC_ViewCart-to-UC_Login" style="stroke:#181818;stroke-width:1.0;stroke-dasharray:7.0,7.0;"/><polygon fill="#181818" points="469.59,481.2,459.9991,478.9605,464.6789,482.1386,461.5008,486.8183,469.59,481.2" style="stroke:#181818;stroke-width:1.0;"/><text fill="#000000" font-family="sans-serif" font-size="13" lengthAdjust="spacing" textLength="55" x="237" y="562.4951">&#171;include&#187;</text><text fill="#000000" font-family="sans-serif" font-size="13" lengthAdjust="spacing" textLength="106" x="211.5" y="578.8467">(si non authentifi&#233;)</text></g><!--link UC_Checkout to UC_CalcTotal--><g id="link_UC_Checkout_UC_CalcTotal"><path d="M445.74,911.21 C375.58,905.94 283,899 283,899 C283,899 283,881 283,881 C283,881 345,795 345,795 C345,795 408.6429,782.4882 460.7929,772.2282 " fill="none" id="UC_Checkout-to-UC_CalcTotal" style="stroke:#181818;stroke-width:1.0;stroke-dasharray:7.0,7.0;"/><polygon fill="#181818" points="466.68,771.07,457.0771,768.8826,461.774,772.0352,458.6214,776.7321,466.68,771.07" style="stroke:#181818;stroke-width:1.0;"/><text fill="#000000" font-family="sans-serif" font-size="13" lengthAdjust="spacing" textLength="55" x="237" y="895.4951">&#171;include&#187;</text></g><!--link UC_Checkout to UC_Stock--><g id="link_UC_Checkout_UC_Stock"><path d="M523,898.34 C523,882.9 523,867.15 523,852.14 " fill="none" id="UC_Checkout-to-UC_Stock" style="stroke:#181818;stroke-width:1.0;stroke-dasharray:7.0,7.0;"/><polygon fill="#181818" points="523,846.14,519,855.14,523,851.14,527,855.14,523,846.14" style="stroke:#181818;stroke-width:1.0;"/><text fill="#000000" font-family="sans-serif" font-size="13" lengthAdjust="spacing" textLength="55" x="483.5" y="877.7451">&#171;include&#187;</text></g><!--link UC_Checkout to UC_PayPal--><g id="link_UC_Checkout_UC_PayPal"><path d="M462.24,929.29 C410.68,939.72 345,953 345,953 C345,953 283,1057 283,1057 C283,1057 283,1075 283,1075 C283,1075 345,1101 345,1101 C345,1101 406.0629,1113.0015 457.8429,1123.1915 " fill="none" id="UC_Checkout-to-UC_PayPal" style="stroke:#181818;stroke-width:1.0;stroke-dasharray:7.0,7.0;"/><polygon fill="#181818" points="463.73,1124.35,455.6717,1118.6875,458.8241,1123.3845,454.127,1126.5369,463.73,1124.35" style="stroke:#181818;stroke-width:1.0;"/><text fill="#000000" font-family="sans-serif" font-size="13" lengthAdjust="spacing" textLength="55" x="237" y="1071.4951">&#171;include&#187;</text></g><!--link UC_PayPal to UC_Confirm--><g id="link_UC_PayPal_UC_Confirm"><path d="M463.73,1124.35 C411.95,1114.16 345,1101 345,1101 C345,1101 283,1029 283,1029 C283,1029 283,1011 283,1011 C283,1011 363.5908,1004.2889 432.7408,998.5189 " fill="none" id="UC_PayPal-to-UC_Confirm" style="stroke:#181818;stroke-width:1.0;stroke-dasharray:7.0,7.0;"/><polygon fill="#181818" points="438.72,998.02,429.4186,994.7822,433.7373,998.4358,430.0838,1002.7545,438.72,998.02" style="stroke:#181818;stroke-width:1.0;"/><text fill="#000000" font-family="sans-serif" font-size="13" lengthAdjust="spacing" textLength="55" x="237" y="1025.4951">&#171;include&#187;</text></g><!--link UC_Signup to UC_VerifMail--><g id="link_UC_Signup_UC_VerifMail"><path d="M464.72,551.46 C412.8,561.67 345,575 345,575 C345,575 283,1080 283,1080 C283,1080 283,1098 283,1098 C283,1098 345,1489 345,1489 C345,1489 394.6933,1500.4425 443.7233,1511.7425 " fill="none" id="UC_Signup-to-UC_VerifMail" style="stroke:#181818;stroke-width:1.0;stroke-dasharray:7.0,7.0;"/><polygon fill="#181818" points="449.57,1513.09,441.6982,1507.1709,444.6977,1511.9671,439.9016,1514.9666,449.57,1513.09" style="stroke:#181818;stroke-width:1.0;"/><text fill="#000000" font-family="sans-serif" font-size="13" lengthAdjust="spacing" textLength="55" x="237" y="1094.4951">&#171;include&#187;</text></g><!--link UC_ValidateEmail to UC_Signup--><g id="link_UC_ValidateEmail_UC_Signup"><path d="M450.09,1321.62 C400.93,1310.57 345,1298 345,1298 C345,1298 239,876 239,876 C239,876 239,842 239,842 C239,842 345,575 345,575 C345,575 406.9128,562.8277 458.8328,552.6177 " fill="none" id="UC_ValidateEmail-to-UC_Signup" style="stroke:#181818;stroke-width:1.0;stroke-dasharray:7.0,7.0;"/><polygon fill="#181818" points="464.72,551.46,455.1173,549.2717,459.814,552.4248,456.6609,557.1214,464.72,551.46" style="stroke:#181818;stroke-width:1.0;"/><text fill="#000000" font-family="sans-serif" font-size="13" lengthAdjust="spacing" textLength="53" x="238" y="856.4951">&#171;extend&#187;</text><text fill="#000000" font-family="sans-serif" font-size="13" lengthAdjust="spacing" textLength="143" x="193" y="872.8467">(apr&#232;s r&#233;ception du mail)</text></g><!--link UC_Newsletter to UC_SendNewsletter--><g id="link_UC_Newsletter_UC_SendNewsletter"><path d="M420.87,1265.64 C355.55,1272.44 283,1280 283,1280 C283,1280 283,1298 283,1298 C283,1298 345,1571 345,1571 C345,1571 404.3757,1583.3381 455.8657,1594.0481 " fill="none" id="UC_Newsletter-to-UC_SendNewsletter" style="stroke:#181818;stroke-width:1.0;stroke-dasharray:7.0,7.0;"/><polygon fill="#181818" points="461.74,1595.27,453.7432,1589.521,456.8448,1594.2518,452.114,1597.3534,461.74,1595.27" style="stroke:#181818;stroke-width:1.0;"/><text fill="#000000" font-family="sans-serif" font-size="13" lengthAdjust="spacing" textLength="55" x="237" y="1294.4951">&#171;include&#187;</text></g><!--link UC_ContactPay to UC_PayPal--><g id="link_UC_ContactPay_UC_PayPal"><path d="M412.15,1434.12 C339.53,1427 258,1419 258,1419 C258,1419 258,1385 258,1385 C258,1385 345,1214 345,1214 C345,1214 428.9744,1177.198 481.0544,1154.378 " fill="none" id="UC_ContactPay-to-UC_PayPal" style="stroke:#181818;stroke-width:1.0;stroke-dasharray:7.0,7.0;"/><polygon fill="#181818" points="486.55,1151.97,476.7013,1151.9183,481.9703,1153.9767,479.912,1159.2457,486.55,1151.97" style="stroke:#181818;stroke-width:1.0;"/><text fill="#000000" font-family="sans-serif" font-size="13" lengthAdjust="spacing" textLength="53" x="238" y="1399.4951">&#171;extend&#187;</text><text fill="#000000" font-family="sans-serif" font-size="13" lengthAdjust="spacing" textLength="105" x="212" y="1415.8467">(en cas d'incident)</text></g><!--SRC=[bLZDRkCs4BxhAGOvD0cmIU_1De3hQ1SgRCUrx60F2nICD76uaKYNf9mD5WlqKNfSzz2Nq8jrIFs4akKa3R2mFHoIy_FDDyFL3rnic68vP5oWUTeWR6JsP7y46TuPC18KNzyRIBd2n70fWk3ubu4_68sNuMeHmz1Ym18Z5HpTSCqD5ke8c0RtGwfcRPnn50POOUxfaz_nSkVKAdcZDKfpBhWsYhNdE56pFcTFSvOv-JoUDz8OrPOd2EanYgtazlCiPppJJd5AtsArFUJOUBGSJQu_hi9XrsnOc5XdI2ummpAvBX1-m-Bh4NmB00gD2TDeBLE9B1HNGAf9e-aCM8t_-5N9Hus-_WUU6OKAA3rMlTojfUAjlbr5vUilCBb7PVz18U0B5ergZ7JplQywba8NTZ_SSTfWbJ-BaricKZnZGaYHu3lWELlJHuewKNnZCt_Qd7Y5XaBcdpZw8Wjx7Yl8Ni5HDQgZD1qpPOBl1wDxFPqlG_W9vgDP52vUZx7CDmQjVdrF9yXZLUwg02HEhuq1NujYusl6b0Gf11tyREn4hWb9lbj9KkxI8RzkE3uwnppjgKm9jgJzPy48mPGotQY7AJU_cwTklWnNRR8WxT-mm5nkCJAOTr6aDMqYxtARhaPvV8_90wMWg_f4cblEm2iAqgr-zQ23L1RsM777LSvijjkZAradoYnBYWmTaeqqpqVRXQKL-DetvKvLSI5rRMJoq6R5_dWH6jFLBABwYwvdbF5mEeecyLiGaXU29yuBkwskz0vGGk816nwxHXY7RMLaqd7z1aasxK7zsHrDnxDK8MK4AZvfDxACfyHGxcf_yqVQRE5qQw6NMxuJ-AWpD1uAPwraoE1z_HX5Eho7KcUO1RYBVCE1HF6Ckykz55iz0iRXP8okfj4iYfUBAXkl9S7ZQHVGRmDH6EB1AHD4EpMH3kxHBVXrTzEreahL1_OKXcTSkwRHsxRITjTXl-FuUXmvfsEuYUB8ThbXz-k61cTdbnwbzwGrSVUaDKVtf3NFzgGDfVQFg2Yk9wqehIVqqF8MhyUJA9mjXtskktPzSCkANN73VbsfHt3TXPRCUkAQY7fNTagjk_O__NGG7tRJmRavjelHWQKQYGCh5TWw2xtoxQnvXVaM1-9mSHEDmnZ2JyjmCGiFS6KzxxGHR5ckjz2pBA21gbcgUuWdUTtK3vFL9uXcjMK_qzVnP7KLqZThxkngsDZW6AvmKt0D6NiULs1BSGHcfuwwRGPjlVJhX4xOx-CWobr2p4tZA4s3vJyqQZNpGBaBF2Z3-NCTmGMyVyz5aXKfNbxIoAGv2Di4l9drrDxN81XIkeK64KbiH6otKTBUMUZ0GtbzGTiwkvSCQBgk2VRlDSqgIuEQxTAvNrjxcjON6gcgLffYFLM1cwBHZYw3_JDewQW-leNO_l4ljLD0RUmbch8dcE8If1j41MQVHKR1Xl9l2ujatyIWJmrDy2gph1durH30NHxPHfK_D2YBYKrrKE5SSzbisiZnODjsESvGM6HcpVi2tMwNv-SAQapebDL0m5_fsdjH-IpQi51cgATgfwxaRLR-o3jxWqwbTc7IYqbpqZ4PnrFQUtgei6VNoqDK8oIXfNf0ohjEXvZRO4j1dS66-y9lq9rw2c8kd892UeBojHrfRUrt1dZYaBt9Fo17mDuVx5jHzyhohnvwYWRW5y4PXFLJyH3AuQHEsoafJuvz1pP8DOZqoBBqiXr4-4aLwjENpFJ8TuugHsDjq3KChTDq3g5FruBp81GqS9N_2W-9pKlNFGGo3FIXf_3vIvPuxBvoVbBjlGQr4uNvBRrujVlv3YZVH4zMXOmKchd_JNW76I70FZJH9EUddX7_0G00]--></g></svg>