<?xml version="1.0" encoding="us-ascii" standalone="no"?><svg xmlns="http://www.w3.org/2000/svg" xmlns:xlink="http://www.w3.org/1999/xlink" contentStyleType="text/css" height="1646px" preserveAspectRatio="none" style="width:793px;height:1646px;background:#FFFFFF;" version="1.1" viewBox="0 0 793 1646" width="793px" zoomAndPan="magnify"><defs/><g><!--class Authentifiable--><g id="elem_Authentifiable"><rect codeLine="7" fill="#F1F1F1" height="65.6094" id="Authentifiable" rx="2.5" ry="2.5" style="stroke:#181818;stroke-width:0.5;" width="302" x="418" y="7"/><ellipse cx="521.75" cy="23" fill="#B4A7E5" rx="11" ry="11" style="stroke:#181818;stroke-width:1.0;"/><path d="M522.7031,19.6406 L522.7031,26.2969 L524.4219,26.2969 Q525.0313,26.2969 525.2969,26.5313 Q525.5625,26.7656 525.5625,27.1563 Q525.5625,27.5313 525.2969,27.7656 Q525.0313,28 524.4219,28 L519.2813,28 Q518.6719,28 518.4063,27.7656 Q518.1406,27.5313 518.1406,27.1406 Q518.1406,26.7656 518.4063,26.5313 Q518.6719,26.2969 519.2813,26.2969 L521,26.2969 L521,19.6406 L519.2813,19.6406 Q518.6719,19.6406 518.4063,19.4063 Q518.1406,19.1719 518.1406,18.7813 Q518.1406,18.4063 518.4063,18.1719 Q518.6719,17.9375 519.2813,17.9375 L524.4219,17.9375 Q525.0313,17.9375 525.2969,18.1719 Q525.5625,18.4063 525.5625,18.7813 Q525.5625,19.1719 525.2969,19.4063 Q525.0313,19.6406 524.4219,19.6406 L522.7031,19.6406 Z " fill="#000000"/><text fill="#000000" font-family="sans-serif" font-size="14" font-style="italic" lengthAdjust="spacing" textLength="86" x="542.25" y="28.7285">Authentifiable</text><line style="stroke:#181818;stroke-width:0.5;" x1="419" x2="719" y1="39" y2="39"/><line style="stroke:#181818;stroke-width:0.5;" x1="419" x2="719" y1="47" y2="47"/><text fill="#000000" font-family="sans-serif" font-size="14" lengthAdjust="spacing" textLength="290" x="424" y="65.5332">+sAuthentifier(email: String, mdp: String): bool</text></g><!--class Utilisateur--><g id="elem_Utilisateur"><rect codeLine="12" fill="#F1F1F1" height="153.6563" id="Utilisateur" rx="2.5" ry="2.5" style="stroke:#181818;stroke-width:0.5;" width="302" x="418" y="134"/><ellipse cx="533.25" cy="150" fill="#A9DCDF" rx="11" ry="11" style="stroke:#181818;stroke-width:1.0;"/><path d="M535.4375,151.7656 L531.2969,151.7656 L530.875,152.7969 L531.2969,152.7969 Q531.9063,152.7969 532.1719,153.0313 Q532.4375,153.2656 532.4375,153.6563 Q532.4375,154.0313 532.1719,154.2656 Q531.9063,154.5 531.2969,154.5 L529,154.5 Q528.3906,154.5 528.1328,154.2656 Q527.875,154.0313 527.875,153.6406 Q527.875,153.2656 528.1484,153.0234 Q528.4219,152.7813 529.0469,152.7969 L531.7188,146.1406 L530.6094,146.1406 Q530,146.1406 529.7344,145.9063 Q529.4688,145.6719 529.4688,145.2813 Q529.4688,144.9063 529.7344,144.6719 Q530,144.4375 530.6094,144.4375 L534.2813,144.4375 L537.6719,152.7969 Q538.2656,152.7969 538.4531,152.9375 Q538.8438,153.2031 538.8438,153.6563 Q538.8438,154.0313 538.5859,154.2656 Q538.3281,154.5 537.7188,154.5 L535.4219,154.5 Q534.8125,154.5 534.5469,154.2656 Q534.2813,154.0313 534.2813,153.6406 Q534.2813,153.2656 534.5469,153.0313 Q534.8125,152.7969 535.4219,152.7969 L535.8438,152.7969 L535.4375,151.7656 Z M534.7188,150.0625 L533.3594,146.6875 L531.9844,150.0625 L534.7188,150.0625 Z " fill="#000000"/><text fill="#000000" font-family="sans-serif" font-size="14" font-style="italic" lengthAdjust="spacing" textLength="63" x="553.75" y="155.7285">Utilisateur</text><line style="stroke:#181818;stroke-width:0.5;" x1="419" x2="719" y1="166" y2="166"/><text fill="#000000" font-family="sans-serif" font-size="14" lengthAdjust="spacing" textLength="39" x="424" y="184.5332">-id: int</text><text fill="#000000" font-family="sans-serif" font-size="14" lengthAdjust="spacing" textLength="77" x="424" y="202.1426">-nom: String</text><text fill="#000000" font-family="sans-serif" font-size="14" lengthAdjust="spacing" textLength="83" x="424" y="219.752">-email: String</text><text fill="#000000" font-family="sans-serif" font-size="14" lengthAdjust="spacing" textLength="134" x="424" y="237.3613">-statutCompte: String</text><text fill="#000000" font-family="sans-serif" font-size="14" lengthAdjust="spacing" textLength="125" x="424" y="254.9707">-dateCreation: Date</text><line style="stroke:#181818;stroke-width:0.5;" x1="419" x2="719" y1="262.0469" y2="262.0469"/><text fill="#000000" font-family="sans-serif" font-size="14" lengthAdjust="spacing" textLength="290" x="424" y="280.5801">+sAuthentifier(email: String, mdp: String): bool</text></g><!--class Client--><g id="elem_Client"><rect codeLine="22" fill="#F1F1F1" height="136.0469" id="Client" rx="2.5" ry="2.5" style="stroke:#181818;stroke-width:0.5;" width="304" x="130" y="349"/><ellipse cx="259.75" cy="365" fill="#ADD1B2" rx="11" ry="11" style="stroke:#181818;stroke-width:1.0;"/><path d="M262.5156,360.875 Q262.6719,360.6563 262.8594,360.5469 Q263.0469,360.4375 263.2656,360.4375 Q263.6406,360.4375 263.875,360.6953 Q264.1094,360.9531 264.1094,361.5625 L264.1094,363.0156 Q264.1094,363.625 263.875,363.8906 Q263.6406,364.1563 263.2656,364.1563 Q262.9219,364.1563 262.7188,363.9531 Q262.5156,363.7656 262.4063,363.25 Q262.3594,362.8906 262.1719,362.7031 Q261.8438,362.3281 261.2344,362.1094 Q260.625,361.8906 260,361.8906 Q259.2344,361.8906 258.6016,362.2188 Q257.9688,362.5469 257.4766,363.2969 Q256.9844,364.0469 256.9844,365.0781 L256.9844,366.1719 Q256.9844,367.4063 257.875,368.2266 Q258.7656,369.0469 260.3594,369.0469 Q261.2969,369.0469 261.9531,368.7969 Q262.3438,368.6406 262.7656,368.2031 Q263.0313,367.9375 263.1797,367.8594 Q263.3281,367.7813 263.5313,367.7813 Q263.8594,367.7813 264.1172,368.0391 Q264.375,368.2969 264.375,368.6406 Q264.375,368.9844 264.0313,369.3906 Q263.5313,369.9688 262.7344,370.2969 Q261.6563,370.75 260.3594,370.75 Q258.8438,370.75 257.6406,370.125 Q256.6563,369.625 255.9688,368.5547 Q255.2813,367.4844 255.2813,366.2031 L255.2813,365.0469 Q255.2813,363.7188 255.8984,362.5703 Q256.5156,361.4219 257.6094,360.8047 Q258.7031,360.1875 259.9375,360.1875 Q260.6719,360.1875 261.3203,360.3516 Q261.9688,360.5156 262.5156,360.875 Z " fill="#000000"/><text fill="#000000" font-family="sans-serif" font-size="14" lengthAdjust="spacing" textLength="36" x="280.25" y="370.7285">Client</text><line style="stroke:#181818;stroke-width:0.5;" x1="131" x2="433" y1="381" y2="381"/><text fill="#000000" font-family="sans-serif" font-size="14" lengthAdjust="spacing" textLength="99" x="136" y="399.5332">-estVerifie: bool</text><text fill="#000000" font-family="sans-serif" font-size="14" lengthAdjust="spacing" textLength="142" x="136" y="417.1426">-newsletterActive: bool</text><line style="stroke:#181818;stroke-width:0.5;" x1="131" x2="433" y1="424.2188" y2="424.2188"/><text fill="#000000" font-family="sans-serif" font-size="14" lengthAdjust="spacing" textLength="130" x="136" y="442.752">+verifierEmail(): bool</text><text fill="#000000" font-family="sans-serif" font-size="14" lengthAdjust="spacing" textLength="292" x="136" y="460.3613">+gererAbonnementNewsletter(actif: bool): void</text><text fill="#000000" font-family="sans-serif" font-size="14" lengthAdjust="spacing" textLength="248" x="136" y="477.9707">+payerCommande(c: Commande): bool</text></g><!--class Administrateur--><g id="elem_Administrateur"><rect codeLine="31" fill="#F1F1F1" height="118.4375" id="Administrateur" rx="2.5" ry="2.5" style="stroke:#181818;stroke-width:0.5;" width="199" x="469.5" y="358"/><ellipse cx="519.25" cy="374" fill="#ADD1B2" rx="11" ry="11" style="stroke:#181818;stroke-width:1.0;"/><path d="M522.0156,369.875 Q522.1719,369.6563 522.3594,369.5469 Q522.5469,369.4375 522.7656,369.4375 Q523.1406,369.4375 523.375,369.6953 Q523.6094,369.9531 523.6094,370.5625 L523.6094,372.0156 Q523.6094,372.625 523.375,372.8906 Q523.1406,373.1563 522.7656,373.1563 Q522.4219,373.1563 522.2188,372.9531 Q522.0156,372.7656 521.9063,372.25 Q521.8594,371.8906 521.6719,371.7031 Q521.3438,371.3281 520.7344,371.1094 Q520.125,370.8906 519.5,370.8906 Q518.7344,370.8906 518.1016,371.2188 Q517.4688,371.5469 516.9766,372.2969 Q516.4844,373.0469 516.4844,374.0781 L516.4844,375.1719 Q516.4844,376.4063 517.375,377.2266 Q518.2656,378.0469 519.8594,378.0469 Q520.7969,378.0469 521.4531,377.7969 Q521.8438,377.6406 522.2656,377.2031 Q522.5313,376.9375 522.6797,376.8594 Q522.8281,376.7813 523.0313,376.7813 Q523.3594,376.7813 523.6172,377.0391 Q523.875,377.2969 523.875,377.6406 Q523.875,377.9844 523.5313,378.3906 Q523.0313,378.9688 522.2344,379.2969 Q521.1563,379.75 519.8594,379.75 Q518.3438,379.75 517.1406,379.125 Q516.1563,378.625 515.4688,377.5547 Q514.7813,376.4844 514.7813,375.2031 L514.7813,374.0469 Q514.7813,372.7188 515.3984,371.5703 Q516.0156,370.4219 517.1094,369.8047 Q518.2031,369.1875 519.4375,369.1875 Q520.1719,369.1875 520.8203,369.3516 Q521.4688,369.5156 522.0156,369.875 Z " fill="#000000"/><text fill="#000000" font-family="sans-serif" font-size="14" lengthAdjust="spacing" textLength="91" x="539.75" y="379.7285">Administrateur</text><line style="stroke:#181818;stroke-width:0.5;" x1="470.5" x2="667.5" y1="390" y2="390"/><text fill="#000000" font-family="sans-serif" font-size="14" lengthAdjust="spacing" textLength="108" x="475.5" y="408.5332">-niveauAcces: int</text><line style="stroke:#181818;stroke-width:0.5;" x1="470.5" x2="667.5" y1="415.6094" y2="415.6094"/><text fill="#000000" font-family="sans-serif" font-size="14" lengthAdjust="spacing" textLength="168" x="475.5" y="434.1426">+envoyerNewsletter(): void</text><text fill="#000000" font-family="sans-serif" font-size="14" lengthAdjust="spacing" textLength="187" x="475.5" y="451.752">+bloquerClient(c: Client): void</text><text fill="#000000" font-family="sans-serif" font-size="14" lengthAdjust="spacing" textLength="151" x="475.5" y="469.3613">+gererCatalogue(): void</text></g><!--class Adresse--><g id="elem_Adresse"><rect codeLine="40" fill="#F1F1F1" height="136.0469" id="Adresse" rx="2.5" ry="2.5" style="stroke:#181818;stroke-width:0.5;" width="132" x="7" y="572"/><ellipse cx="43.6" cy="588" fill="#ADD1B2" rx="11" ry="11" style="stroke:#181818;stroke-width:1.0;"/><path d="M46.3656,583.875 Q46.5219,583.6563 46.7094,583.5469 Q46.8969,583.4375 47.1156,583.4375 Q47.4906,583.4375 47.725,583.6953 Q47.9594,583.9531 47.9594,584.5625 L47.9594,586.0156 Q47.9594,586.625 47.725,586.8906 Q47.4906,587.1563 47.1156,587.1563 Q46.7719,587.1563 46.5688,586.9531 Q46.3656,586.7656 46.2563,586.25 Q46.2094,585.8906 46.0219,585.7031 Q45.6938,585.3281 45.0844,585.1094 Q44.475,584.8906 43.85,584.8906 Q43.0844,584.8906 42.4516,585.2188 Q41.8188,585.5469 41.3266,586.2969 Q40.8344,587.0469 40.8344,588.0781 L40.8344,589.1719 Q40.8344,590.4063 41.725,591.2266 Q42.6156,592.0469 44.2094,592.0469 Q45.1469,592.0469 45.8031,591.7969 Q46.1938,591.6406 46.6156,591.2031 Q46.8813,590.9375 47.0297,590.8594 Q47.1781,590.7813 47.3813,590.7813 Q47.7094,590.7813 47.9672,591.0391 Q48.225,591.2969 48.225,591.6406 Q48.225,591.9844 47.8813,592.3906 Q47.3813,592.9688 46.5844,593.2969 Q45.5063,593.75 44.2094,593.75 Q42.6938,593.75 41.4906,593.125 Q40.5063,592.625 39.8188,591.5547 Q39.1313,590.4844 39.1313,589.2031 L39.1313,588.0469 Q39.1313,586.7188 39.7484,585.5703 Q40.3656,584.4219 41.4594,583.8047 Q42.5531,583.1875 43.7875,583.1875 Q44.5219,583.1875 45.1703,583.3516 Q45.8188,583.5156 46.3656,583.875 Z " fill="#000000"/><text fill="#000000" font-family="sans-serif" font-size="14" lengthAdjust="spacing" textLength="52" x="62.4" y="593.7285">Adresse</text><line style="stroke:#181818;stroke-width:0.5;" x1="8" x2="138" y1="604" y2="604"/><text fill="#000000" font-family="sans-serif" font-size="14" lengthAdjust="spacing" textLength="39" x="13" y="622.5332">-id: int</text><text fill="#000000" font-family="sans-serif" font-size="14" lengthAdjust="spacing" textLength="71" x="13" y="640.1426">-rue: String</text><text fill="#000000" font-family="sans-serif" font-size="14" lengthAdjust="spacing" textLength="120" x="13" y="657.752">-codePostal: String</text><text fill="#000000" font-family="sans-serif" font-size="14" lengthAdjust="spacing" textLength="74" x="13" y="675.3613">-ville: String</text><text fill="#000000" font-family="sans-serif" font-size="14" lengthAdjust="spacing" textLength="80" x="13" y="692.9707">-pays: String</text><line style="stroke:#181818;stroke-width:0.5;" x1="8" x2="138" y1="700.0469" y2="700.0469"/></g><!--class Jeu--><g id="elem_Jeu"><rect codeLine="49" fill="#F1F1F1" height="171.2656" id="Jeu" rx="2.5" ry="2.5" style="stroke:#181818;stroke-width:0.5;" width="302" x="360" y="1289"/><ellipse cx="495.25" cy="1305" fill="#A9DCDF" rx="11" ry="11" style="stroke:#181818;stroke-width:1.0;"/><path d="M497.4375,1306.7656 L493.2969,1306.7656 L492.875,1307.7969 L493.2969,1307.7969 Q493.9063,1307.7969 494.1719,1308.0313 Q494.4375,1308.2656 494.4375,1308.6563 Q494.4375,1309.0313 494.1719,1309.2656 Q493.9063,1309.5 493.2969,1309.5 L491,1309.5 Q490.3906,1309.5 490.1328,1309.2656 Q489.875,1309.0313 489.875,1308.6406 Q489.875,1308.2656 490.1484,1308.0234 Q490.4219,1307.7813 491.0469,1307.7969 L493.7188,1301.1406 L492.6094,1301.1406 Q492,1301.1406 491.7344,1300.9063 Q491.4688,1300.6719 491.4688,1300.2813 Q491.4688,1299.9063 491.7344,1299.6719 Q492,1299.4375 492.6094,1299.4375 L496.2813,1299.4375 L499.6719,1307.7969 Q500.2656,1307.7969 500.4531,1307.9375 Q500.8438,1308.2031 500.8438,1308.6563 Q500.8438,1309.0313 500.5859,1309.2656 Q500.3281,1309.5 499.7188,1309.5 L497.4219,1309.5 Q496.8125,1309.5 496.5469,1309.2656 Q496.2813,1309.0313 496.2813,1308.6406 Q496.2813,1308.2656 496.5469,1308.0313 Q496.8125,1307.7969 497.4219,1307.7969 L497.8438,1307.7969 L497.4375,1306.7656 Z M496.7188,1305.0625 L495.3594,1301.6875 L493.9844,1305.0625 L496.7188,1305.0625 Z " fill="#000000"/><text fill="#000000" font-family="sans-serif" font-size="14" font-style="italic" lengthAdjust="spacing" textLength="23" x="515.75" y="1310.7285">Jeu</text><line style="stroke:#181818;stroke-width:0.5;" x1="361" x2="661" y1="1321" y2="1321"/><text fill="#000000" font-family="sans-serif" font-size="14" lengthAdjust="spacing" textLength="39" x="366" y="1339.5332">-id: int</text><text fill="#000000" font-family="sans-serif" font-size="14" lengthAdjust="spacing" textLength="74" x="366" y="1357.1426">-titre: String</text><text fill="#000000" font-family="sans-serif" font-size="14" lengthAdjust="spacing" textLength="119" x="366" y="1374.752">-description: String</text><text fill="#000000" font-family="sans-serif" font-size="14" lengthAdjust="spacing" textLength="87" x="366" y="1392.3613">-genre: String</text><text fill="#000000" font-family="sans-serif" font-size="14" lengthAdjust="spacing" textLength="62" x="366" y="1409.9707">-prix: float</text><text fill="#000000" font-family="sans-serif" font-size="14" lengthAdjust="spacing" textLength="107" x="366" y="1427.5801">-ageMinimum: int</text><line style="stroke:#181818;stroke-width:0.5;" x1="361" x2="661" y1="1434.6563" y2="1434.6563"/><text fill="#000000" font-family="sans-serif" font-size="14" lengthAdjust="spacing" textLength="290" x="366" y="1453.1895">+appliquerReduction(pourcentage: float): void</text></g><!--class JeuPhysique--><g id="elem_JeuPhysique"><rect codeLine="60" fill="#F1F1F1" height="100.8281" id="JeuPhysique" rx="2.5" ry="2.5" style="stroke:#181818;stroke-width:0.5;" width="222" x="282" y="1529.5"/><ellipse cx="348.75" cy="1545.5" fill="#ADD1B2" rx="11" ry="11" style="stroke:#181818;stroke-width:1.0;"/><path d="M351.5156,1541.375 Q351.6719,1541.1563 351.8594,1541.0469 Q352.0469,1540.9375 352.2656,1540.9375 Q352.6406,1540.9375 352.875,1541.1953 Q353.1094,1541.4531 353.1094,1542.0625 L353.1094,1543.5156 Q353.1094,1544.125 352.875,1544.3906 Q352.6406,1544.6563 352.2656,1544.6563 Q351.9219,1544.6563 351.7188,1544.4531 Q351.5156,1544.2656 351.4063,1543.75 Q351.3594,1543.3906 351.1719,1543.2031 Q350.8438,1542.8281 350.2344,1542.6094 Q349.625,1542.3906 349,1542.3906 Q348.2344,1542.3906 347.6016,1542.7188 Q346.9688,1543.0469 346.4766,1543.7969 Q345.9844,1544.5469 345.9844,1545.5781 L345.9844,1546.6719 Q345.9844,1547.9063 346.875,1548.7266 Q347.7656,1549.5469 349.3594,1549.5469 Q350.2969,1549.5469 350.9531,1549.2969 Q351.3438,1549.1406 351.7656,1548.7031 Q352.0313,1548.4375 352.1797,1548.3594 Q352.3281,1548.2813 352.5313,1548.2813 Q352.8594,1548.2813 353.1172,1548.5391 Q353.375,1548.7969 353.375,1549.1406 Q353.375,1549.4844 353.0313,1549.8906 Q352.5313,1550.4688 351.7344,1550.7969 Q350.6563,1551.25 349.3594,1551.25 Q347.8438,1551.25 346.6406,1550.625 Q345.6563,1550.125 344.9688,1549.0547 Q344.2813,1547.9844 344.2813,1546.7031 L344.2813,1545.5469 Q344.2813,1544.2188 344.8984,1543.0703 Q345.5156,1541.9219 346.6094,1541.3047 Q347.7031,1540.6875 348.9375,1540.6875 Q349.6719,1540.6875 350.3203,1540.8516 Q350.9688,1541.0156 351.5156,1541.375 Z " fill="#000000"/><text fill="#000000" font-family="sans-serif" font-size="14" lengthAdjust="spacing" textLength="80" x="369.25" y="1551.2285">JeuPhysique</text><line style="stroke:#181818;stroke-width:0.5;" x1="283" x2="503" y1="1561.5" y2="1561.5"/><text fill="#000000" font-family="sans-serif" font-size="14" lengthAdjust="spacing" textLength="61" x="288" y="1580.0332">-stock: int</text><text fill="#000000" font-family="sans-serif" font-size="14" lengthAdjust="spacing" textLength="117" x="288" y="1597.6426">-plateforme: String</text><line style="stroke:#181818;stroke-width:0.5;" x1="283" x2="503" y1="1604.7188" y2="1604.7188"/><text fill="#000000" font-family="sans-serif" font-size="14" lengthAdjust="spacing" textLength="210" x="288" y="1623.252">+decrementerStock(qte: int): void</text></g><!--class JeuDigital--><g id="elem_JeuDigital"><rect codeLine="67" fill="#F1F1F1" height="118.4375" id="JeuDigital" rx="2.5" ry="2.5" style="stroke:#181818;stroke-width:0.5;" width="184" x="539" y="1521"/><ellipse cx="596.25" cy="1537" fill="#ADD1B2" rx="11" ry="11" style="stroke:#181818;stroke-width:1.0;"/><path d="M599.0156,1532.875 Q599.1719,1532.6563 599.3594,1532.5469 Q599.5469,1532.4375 599.7656,1532.4375 Q600.1406,1532.4375 600.375,1532.6953 Q600.6094,1532.9531 600.6094,1533.5625 L600.6094,1535.0156 Q600.6094,1535.625 600.375,1535.8906 Q600.1406,1536.1563 599.7656,1536.1563 Q599.4219,1536.1563 599.2188,1535.9531 Q599.0156,1535.7656 598.9063,1535.25 Q598.8594,1534.8906 598.6719,1534.7031 Q598.3438,1534.3281 597.7344,1534.1094 Q597.125,1533.8906 596.5,1533.8906 Q595.7344,1533.8906 595.1016,1534.2188 Q594.4688,1534.5469 593.9766,1535.2969 Q593.4844,1536.0469 593.4844,1537.0781 L593.4844,1538.1719 Q593.4844,1539.4063 594.375,1540.2266 Q595.2656,1541.0469 596.8594,1541.0469 Q597.7969,1541.0469 598.4531,1540.7969 Q598.8438,1540.6406 599.2656,1540.2031 Q599.5313,1539.9375 599.6797,1539.8594 Q599.8281,1539.7813 600.0313,1539.7813 Q600.3594,1539.7813 600.6172,1540.0391 Q600.875,1540.2969 600.875,1540.6406 Q600.875,1540.9844 600.5313,1541.3906 Q600.0313,1541.9688 599.2344,1542.2969 Q598.1563,1542.75 596.8594,1542.75 Q595.3438,1542.75 594.1406,1542.125 Q593.1563,1541.625 592.4688,1540.5547 Q591.7813,1539.4844 591.7813,1538.2031 L591.7813,1537.0469 Q591.7813,1535.7188 592.3984,1534.5703 Q593.0156,1533.4219 594.1094,1532.8047 Q595.2031,1532.1875 596.4375,1532.1875 Q597.1719,1532.1875 597.8203,1532.3516 Q598.4688,1532.5156 599.0156,1532.875 Z " fill="#000000"/><text fill="#000000" font-family="sans-serif" font-size="14" lengthAdjust="spacing" textLength="61" x="616.75" y="1542.7285">JeuDigital</text><line style="stroke:#181818;stroke-width:0.5;" x1="540" x2="722" y1="1553" y2="1553"/><text fill="#000000" font-family="sans-serif" font-size="14" lengthAdjust="spacing" textLength="117" x="545" y="1571.5332">-plateforme: String</text><text fill="#000000" font-family="sans-serif" font-size="14" lengthAdjust="spacing" textLength="88" x="545" y="1589.1426">-tailleGo: float</text><text fill="#000000" font-family="sans-serif" font-size="14" lengthAdjust="spacing" textLength="117" x="545" y="1606.752">-cleLicence: String</text><line style="stroke:#181818;stroke-width:0.5;" x1="540" x2="722" y1="1613.8281" y2="1613.8281"/><text fill="#000000" font-family="sans-serif" font-size="14" lengthAdjust="spacing" textLength="172" x="545" y="1632.3613">+genererCleLicence(): void</text></g><!--class Panier--><g id="elem_Panier"><rect codeLine="76" fill="#F1F1F1" height="153.6563" id="Panier" rx="2.5" ry="2.5" style="stroke:#181818;stroke-width:0.5;" width="274" x="174" y="563"/><ellipse cx="286.25" cy="579" fill="#ADD1B2" rx="11" ry="11" style="stroke:#181818;stroke-width:1.0;"/><path d="M289.0156,574.875 Q289.1719,574.6563 289.3594,574.5469 Q289.5469,574.4375 289.7656,574.4375 Q290.1406,574.4375 290.375,574.6953 Q290.6094,574.9531 290.6094,575.5625 L290.6094,577.0156 Q290.6094,577.625 290.375,577.8906 Q290.1406,578.1563 289.7656,578.1563 Q289.4219,578.1563 289.2188,577.9531 Q289.0156,577.7656 288.9063,577.25 Q288.8594,576.8906 288.6719,576.7031 Q288.3438,576.3281 287.7344,576.1094 Q287.125,575.8906 286.5,575.8906 Q285.7344,575.8906 285.1016,576.2188 Q284.4688,576.5469 283.9766,577.2969 Q283.4844,578.0469 283.4844,579.0781 L283.4844,580.1719 Q283.4844,581.4063 284.375,582.2266 Q285.2656,583.0469 286.8594,583.0469 Q287.7969,583.0469 288.4531,582.7969 Q288.8438,582.6406 289.2656,582.2031 Q289.5313,581.9375 289.6797,581.8594 Q289.8281,581.7813 290.0313,581.7813 Q290.3594,581.7813 290.6172,582.0391 Q290.875,582.2969 290.875,582.6406 Q290.875,582.9844 290.5313,583.3906 Q290.0313,583.9688 289.2344,584.2969 Q288.1563,584.75 286.8594,584.75 Q285.3438,584.75 284.1406,584.125 Q283.1563,583.625 282.4688,582.5547 Q281.7813,581.4844 281.7813,580.2031 L281.7813,579.0469 Q281.7813,577.7188 282.3984,576.5703 Q283.0156,575.4219 284.1094,574.8047 Q285.2031,574.1875 286.4375,574.1875 Q287.1719,574.1875 287.8203,574.3516 Q288.4688,574.5156 289.0156,574.875 Z " fill="#000000"/><text fill="#000000" font-family="sans-serif" font-size="14" lengthAdjust="spacing" textLength="41" x="306.75" y="584.7285">Panier</text><line style="stroke:#181818;stroke-width:0.5;" x1="175" x2="447" y1="595" y2="595"/><text fill="#000000" font-family="sans-serif" font-size="14" lengthAdjust="spacing" textLength="39" x="180" y="613.5332">-id: int</text><text fill="#000000" font-family="sans-serif" font-size="14" lengthAdjust="spacing" textLength="125" x="180" y="631.1426">-dateCreation: Date</text><line style="stroke:#181818;stroke-width:0.5;" x1="175" x2="447" y1="638.2188" y2="638.2188"/><text fill="#000000" font-family="sans-serif" font-size="14" lengthAdjust="spacing" textLength="262" x="180" y="656.752">+ajouterLigne(jeu: Jeu, quantite: int): void</text><text fill="#000000" font-family="sans-serif" font-size="14" lengthAdjust="spacing" textLength="199" x="180" y="674.3613">+supprimerLigne(jeu: Jeu): void</text><text fill="#000000" font-family="sans-serif" font-size="14" lengthAdjust="spacing" textLength="134" x="180" y="691.9707">+calculerTotal(): float</text><text fill="#000000" font-family="sans-serif" font-size="14" lengthAdjust="spacing" textLength="260" x="180" y="709.5801">+transformerEnCommande(): Commande</text></g><!--class LignePanier--><g id="elem_LignePanier"><rect codeLine="86" fill="#F1F1F1" height="83.2188" id="LignePanier" rx="2.5" ry="2.5" style="stroke:#181818;stroke-width:0.5;" width="149" x="275.5" y="1014"/><ellipse cx="308.95" cy="1030" fill="#ADD1B2" rx="11" ry="11" style="stroke:#181818;stroke-width:1.0;"/><path d="M311.7156,1025.875 Q311.8719,1025.6563 312.0594,1025.5469 Q312.2469,1025.4375 312.4656,1025.4375 Q312.8406,1025.4375 313.075,1025.6953 Q313.3094,1025.9531 313.3094,1026.5625 L313.3094,1028.0156 Q313.3094,1028.625 313.075,1028.8906 Q312.8406,1029.1563 312.4656,1029.1563 Q312.1219,1029.1563 311.9188,1028.9531 Q311.7156,1028.7656 311.6063,1028.25 Q311.5594,1027.8906 311.3719,1027.7031 Q311.0438,1027.3281 310.4344,1027.1094 Q309.825,1026.8906 309.2,1026.8906 Q308.4344,1026.8906 307.8016,1027.2188 Q307.1688,1027.5469 306.6766,1028.2969 Q306.1844,1029.0469 306.1844,1030.0781 L306.1844,1031.1719 Q306.1844,1032.4063 307.075,1033.2266 Q307.9656,1034.0469 309.5594,1034.0469 Q310.4969,1034.0469 311.1531,1033.7969 Q311.5438,1033.6406 311.9656,1033.2031 Q312.2313,1032.9375 312.3797,1032.8594 Q312.5281,1032.7813 312.7313,1032.7813 Q313.0594,1032.7813 313.3172,1033.0391 Q313.575,1033.2969 313.575,1033.6406 Q313.575,1033.9844 313.2313,1034.3906 Q312.7313,1034.9688 311.9344,1035.2969 Q310.8563,1035.75 309.5594,1035.75 Q308.0438,1035.75 306.8406,1035.125 Q305.8563,1034.625 305.1688,1033.5547 Q304.4813,1032.4844 304.4813,1031.2031 L304.4813,1030.0469 Q304.4813,1028.7188 305.0984,1027.5703 Q305.7156,1026.4219 306.8094,1025.8047 Q307.9031,1025.1875 309.1375,1025.1875 Q309.8719,1025.1875 310.5203,1025.3516 Q311.1688,1025.5156 311.7156,1025.875 Z " fill="#000000"/><text fill="#000000" font-family="sans-serif" font-size="14" lengthAdjust="spacing" textLength="76" x="327.05" y="1035.7285">LignePanier</text><line style="stroke:#181818;stroke-width:0.5;" x1="276.5" x2="423.5" y1="1046" y2="1046"/><text fill="#000000" font-family="sans-serif" font-size="14" lengthAdjust="spacing" textLength="79" x="281.5" y="1064.5332">-quantite: int</text><line style="stroke:#181818;stroke-width:0.5;" x1="276.5" x2="423.5" y1="1071.6094" y2="1071.6094"/><text fill="#000000" font-family="sans-serif" font-size="14" lengthAdjust="spacing" textLength="137" x="281.5" y="1090.1426">+getSousTotal(): float</text></g><!--class Commande--><g id="elem_Commande"><rect codeLine="92" fill="#F1F1F1" height="188.875" id="Commande" rx="2.5" ry="2.5" style="stroke:#181818;stroke-width:0.5;" width="257" x="382.5" y="795"/><ellipse cx="470.75" cy="811" fill="#ADD1B2" rx="11" ry="11" style="stroke:#181818;stroke-width:1.0;"/><path d="M473.5156,806.875 Q473.6719,806.6563 473.8594,806.5469 Q474.0469,806.4375 474.2656,806.4375 Q474.6406,806.4375 474.875,806.6953 Q475.1094,806.9531 475.1094,807.5625 L475.1094,809.0156 Q475.1094,809.625 474.875,809.8906 Q474.6406,810.1563 474.2656,810.1563 Q473.9219,810.1563 473.7188,809.9531 Q473.5156,809.7656 473.4063,809.25 Q473.3594,808.8906 473.1719,808.7031 Q472.8438,808.3281 472.2344,808.1094 Q471.625,807.8906 471,807.8906 Q470.2344,807.8906 469.6016,808.2188 Q468.9688,808.5469 468.4766,809.2969 Q467.9844,810.0469 467.9844,811.0781 L467.9844,812.1719 Q467.9844,813.4063 468.875,814.2266 Q469.7656,815.0469 471.3594,815.0469 Q472.2969,815.0469 472.9531,814.7969 Q473.3438,814.6406 473.7656,814.2031 Q474.0313,813.9375 474.1797,813.8594 Q474.3281,813.7813 474.5313,813.7813 Q474.8594,813.7813 475.1172,814.0391 Q475.375,814.2969 475.375,814.6406 Q475.375,814.9844 475.0313,815.3906 Q474.5313,815.9688 473.7344,816.2969 Q472.6563,816.75 471.3594,816.75 Q469.8438,816.75 468.6406,816.125 Q467.6563,815.625 466.9688,814.5547 Q466.2813,813.4844 466.2813,812.2031 L466.2813,811.0469 Q466.2813,809.7188 466.8984,808.5703 Q467.5156,807.4219 468.6094,806.8047 Q469.7031,806.1875 470.9375,806.1875 Q471.6719,806.1875 472.3203,806.3516 Q472.9688,806.5156 473.5156,806.875 Z " fill="#000000"/><text fill="#000000" font-family="sans-serif" font-size="14" lengthAdjust="spacing" textLength="72" x="491.25" y="816.7285">Commande</text><line style="stroke:#181818;stroke-width:0.5;" x1="383.5" x2="638.5" y1="827" y2="827"/><text fill="#000000" font-family="sans-serif" font-size="14" lengthAdjust="spacing" textLength="39" x="388.5" y="845.5332">-id: int</text><text fill="#000000" font-family="sans-serif" font-size="14" lengthAdjust="spacing" textLength="143" x="388.5" y="863.1426">-dateCommande: Date</text><text fill="#000000" font-family="sans-serif" font-size="14" lengthAdjust="spacing" textLength="123" x="388.5" y="880.752">-montantTotal: float</text><text fill="#000000" font-family="sans-serif" font-size="14" lengthAdjust="spacing" textLength="144" x="388.5" y="898.3613">-statutPaiement: String</text><text fill="#000000" font-family="sans-serif" font-size="14" lengthAdjust="spacing" textLength="132" x="388.5" y="915.9707">-estRembourse: bool</text><line style="stroke:#181818;stroke-width:0.5;" x1="383.5" x2="638.5" y1="923.0469" y2="923.0469"/><text fill="#000000" font-family="sans-serif" font-size="14" lengthAdjust="spacing" textLength="153" x="388.5" y="941.5801">+calculerMontant(): float</text><text fill="#000000" font-family="sans-serif" font-size="14" lengthAdjust="spacing" textLength="245" x="388.5" y="959.1895">+mettreAJourStatut(statut: String): void</text><text fill="#000000" font-family="sans-serif" font-size="14" lengthAdjust="spacing" textLength="125" x="388.5" y="976.7988">+rembourser(): void</text></g><!--class LigneCommande--><g id="elem_LigneCommande"><rect codeLine="104" fill="#F1F1F1" height="100.8281" id="LigneCommande" rx="2.5" ry="2.5" style="stroke:#181818;stroke-width:0.5;" width="149" x="436.5" y="1127"/><ellipse cx="456" cy="1143" fill="#ADD1B2" rx="11" ry="11" style="stroke:#181818;stroke-width:1.0;"/><path d="M458.7656,1138.875 Q458.9219,1138.6563 459.1094,1138.5469 Q459.2969,1138.4375 459.5156,1138.4375 Q459.8906,1138.4375 460.125,1138.6953 Q460.3594,1138.9531 460.3594,1139.5625 L460.3594,1141.0156 Q460.3594,1141.625 460.125,1141.8906 Q459.8906,1142.1563 459.5156,1142.1563 Q459.1719,1142.1563 458.9688,1141.9531 Q458.7656,1141.7656 458.6563,1141.25 Q458.6094,1140.8906 458.4219,1140.7031 Q458.0938,1140.3281 457.4844,1140.1094 Q456.875,1139.8906 456.25,1139.8906 Q455.4844,1139.8906 454.8516,1140.2188 Q454.2188,1140.5469 453.7266,1141.2969 Q453.2344,1142.0469 453.2344,1143.0781 L453.2344,1144.1719 Q453.2344,1145.4063 454.125,1146.2266 Q455.0156,1147.0469 456.6094,1147.0469 Q457.5469,1147.0469 458.2031,1146.7969 Q458.5938,1146.6406 459.0156,1146.2031 Q459.2813,1145.9375 459.4297,1145.8594 Q459.5781,1145.7813 459.7813,1145.7813 Q460.1094,1145.7813 460.3672,1146.0391 Q460.625,1146.2969 460.625,1146.6406 Q460.625,1146.9844 460.2813,1147.3906 Q459.7813,1147.9688 458.9844,1148.2969 Q457.9063,1148.75 456.6094,1148.75 Q455.0938,1148.75 453.8906,1148.125 Q452.9063,1147.625 452.2188,1146.5547 Q451.5313,1145.4844 451.5313,1144.2031 L451.5313,1143.0469 Q451.5313,1141.7188 452.1484,1140.5703 Q452.7656,1139.4219 453.8594,1138.8047 Q454.9531,1138.1875 456.1875,1138.1875 Q456.9219,1138.1875 457.5703,1138.3516 Q458.2188,1138.5156 458.7656,1138.875 Z " fill="#000000"/><text fill="#000000" font-family="sans-serif" font-size="14" lengthAdjust="spacing" textLength="107" x="471" y="1148.7285">LigneCommande</text><line style="stroke:#181818;stroke-width:0.5;" x1="437.5" x2="584.5" y1="1159" y2="1159"/><text fill="#000000" font-family="sans-serif" font-size="14" lengthAdjust="spacing" textLength="79" x="442.5" y="1177.5332">-quantite: int</text><text fill="#000000" font-family="sans-serif" font-size="14" lengthAdjust="spacing" textLength="110" x="442.5" y="1195.1426">-prixUnitaire: float</text><line style="stroke:#181818;stroke-width:0.5;" x1="437.5" x2="584.5" y1="1202.2188" y2="1202.2188"/><text fill="#000000" font-family="sans-serif" font-size="14" lengthAdjust="spacing" textLength="137" x="442.5" y="1220.752">+getSousTotal(): float</text></g><!--reverse link Authentifiable to Utilisateur--><g id="link_Authentifiable_Utilisateur"><path d="M556.757,91.0815 C554.857,108.3115 556.02,112.45 556.3,133.77 " fill="none" id="Authentifiable-backto-Utilisateur" style="stroke:#181818;stroke-width:1.0;stroke-dasharray:7.0,7.0;"/><polygon fill="none" points="558.73,73.19,550.7932,90.4239,562.7209,91.7392,558.73,73.19" style="stroke:#181818;stroke-width:1.0;"/></g><!--reverse link Authentifiable to Utilisateur--><g id="link_Authentifiable_Utilisateur"><path codeLine="114" d="M581.9557,91.0688 C583.9657,108.2988 582.74,112.45 582.44,133.77 " fill="none" id="Authentifiable-backto-Utilisateur-1" style="stroke:#181818;stroke-width:1.0;stroke-dasharray:7.0,7.0;"/><polygon fill="none" points="579.87,73.19,575.9961,91.764,587.9153,90.3735,579.87,73.19" style="stroke:#181818;stroke-width:1.0;"/></g><!--reverse link Utilisateur to Client--><g id="link_Utilisateur_Client"><path d="M434.5696,298.5376 C405.9696,318.4576 390.85,329.49 364.35,348.89 " fill="none" id="Utilisateur-backto-Client" style="stroke:#181818;stroke-width:1.0;"/><polygon fill="none" points="449.34,288.25,431.1404,293.6142,437.9988,303.4611,449.34,288.25" style="stroke:#181818;stroke-width:1.0;"/></g><!--reverse link Utilisateur to Client--><g id="link_Utilisateur_Client"><path codeLine="115" d="M460.2709,298.8346 C432.8709,318.7546 417.32,329.49 389.18,348.89 " fill="none" id="Utilisateur-backto-Client-1" style="stroke:#181818;stroke-width:1.0;"/><polygon fill="none" points="474.83,288.25,456.7427,293.9815,463.7991,303.6876,474.83,288.25" style="stroke:#181818;stroke-width:1.0;"/></g><!--reverse link Utilisateur to Administrateur--><g id="link_Utilisateur_Administrateur"><path d="M556.0901,306.2422 C555.4101,329.3322 556.2,336.31 557.37,358 " fill="none" id="Utilisateur-backto-Administrateur" style="stroke:#181818;stroke-width:1.0;"/><polygon fill="none" points="556.62,288.25,550.0927,306.0656,562.0875,306.4188,556.62,288.25" style="stroke:#181818;stroke-width:1.0;"/></g><!--reverse link Utilisateur to Administrateur--><g id="link_Utilisateur_Administrateur"><path codeLine="116" d="M582.6632,306.2415 C583.3732,329.3315 582.56,336.31 581.32,358 " fill="none" id="Utilisateur-backto-Administrateur-1" style="stroke:#181818;stroke-width:1.0;"/><polygon fill="none" points="582.11,288.25,576.6661,306.4259,588.6604,306.0571,582.11,288.25" style="stroke:#181818;stroke-width:1.0;"/></g><!--reverse link Jeu to JeuPhysique--><g id="link_Jeu_JeuPhysique"><path d="M440.1506,1475.4718 C426.0206,1499.0618 421.34,1508.48 410.66,1529.34 " fill="none" id="Jeu-backto-JeuPhysique" style="stroke:#181818;stroke-width:1.0;"/><polygon fill="none" points="449.4,1460.03,435.0034,1472.3887,445.2979,1478.5549,449.4,1460.03" style="stroke:#181818;stroke-width:1.0;"/></g><!--reverse link Jeu to JeuPhysique--><g id="link_Jeu_JeuPhysique"><path codeLine="138" d="M466.5204,1475.7381 C453.3204,1499.3281 447.18,1508.48 433.58,1529.34 " fill="none" id="Jeu-backto-JeuPhysique-1" style="stroke:#181818;stroke-width:1.0;"/><polygon fill="none" points="475.31,1460.03,461.2844,1472.8082,471.7564,1478.6679,475.31,1460.03" style="stroke:#181818;stroke-width:1.0;"/></g><!--reverse link Jeu to JeuDigital--><g id="link_Jeu_JeuDigital"><path d="M557.1765,1475.6664 C568.8265,1496.0964 572.83,1501.83 584.99,1520.74 " fill="none" id="Jeu-backto-JeuDigital" style="stroke:#181818;stroke-width:1.0;"/><polygon fill="none" points="548.26,1460.03,551.9644,1478.6385,562.3886,1472.6942,548.26,1460.03" style="stroke:#181818;stroke-width:1.0;"/></g><!--reverse link Jeu to JeuDigital--><g id="link_Jeu_JeuDigital"><path codeLine="139" d="M583.5469,1475.4008 C595.9969,1495.8308 598.91,1501.83 608.98,1520.74 " fill="none" id="Jeu-backto-JeuDigital-1" style="stroke:#181818;stroke-width:1.0;"/><polygon fill="none" points="574.18,1460.03,578.4233,1478.5231,588.6705,1472.2785,574.18,1460.03" style="stroke:#181818;stroke-width:1.0;"/></g><!--reverse link Client to Adresse--><g id="link_Client_Adresse"><path codeLine="119" d="M210.1948,493.9288 C184.2548,521.3588 162.56,544.3 136.62,571.73 " fill="none" id="Client-backto-Adresse" style="stroke:#181818;stroke-width:1.0;"/><polygon fill="none" points="218.44,485.21,211.4112,486.821,210.1948,493.9288,217.2237,492.3178,218.44,485.21" style="stroke:#181818;stroke-width:1.0;"/><polygon fill="#000000" points="192.5645,527.8086,200.9147,523.2561,196.644,519.2174,192.5645,527.8086" style="stroke:#000000;stroke-width:1.0;"/><text fill="#000000" font-family="sans-serif" font-size="13" lengthAdjust="spacing" textLength="49" x="205" y="529.4951">possede</text><text fill="#000000" font-family="sans-serif" font-size="13" lengthAdjust="spacing" textLength="7" x="204.5244" y="506.58">1</text><text fill="#000000" font-family="sans-serif" font-size="13" lengthAdjust="spacing" textLength="20" x="122.1496" y="561.3755">0..*</text></g><!--reverse link Client to Panier--><g id="link_Client_Panier"><path codeLine="122" d="M292.3831,497.1078 C295.6031,521.6178 297.69,537.6 301.01,562.83 " fill="none" id="Client-backto-Panier" style="stroke:#181818;stroke-width:1.0;"/><polygon fill="none" points="290.82,485.21,287.6356,491.6799,292.3831,497.1078,295.5675,490.6379,290.82,485.21" style="stroke:#181818;stroke-width:1.0;"/><polygon fill="#000000" points="302.6507,529.1333,304.3875,519.7826,298.5596,520.5476,302.6507,529.1333" style="stroke:#000000;stroke-width:1.0;"/><text fill="#000000" font-family="sans-serif" font-size="13" lengthAdjust="spacing" textLength="61" x="311" y="529.4951">panierActif</text><text fill="#000000" font-family="sans-serif" font-size="13" lengthAdjust="spacing" textLength="7" x="284.3686" y="506.58">1</text><text fill="#000000" font-family="sans-serif" font-size="13" lengthAdjust="spacing" textLength="22" x="277.0094" y="552.2405">0..1</text></g><!--link Client to Commande--><g id="link_Client_Commande"><path codeLine="125" d="M366.8,485.19 C414.67,523.12 465,563 465,563 C465,563 496,747 496,747 C496,747 497.6575,762.6234 500.4475,788.9434 " fill="none" id="Client-to-Commande" style="stroke:#181818;stroke-width:1.0;"/><polygon fill="#181818" points="501.08,794.91,504.109,785.5385,500.5529,789.9379,496.1536,786.3818,501.08,794.91" style="stroke:#181818;stroke-width:1.0;"/><polygon fill="#000000" points="498.0136,644.7524,497.061,635.2896,491.6809,637.6568,498.0136,644.7524" style="stroke:#000000;stroke-width:1.0;"/><text fill="#000000" font-family="sans-serif" font-size="13" lengthAdjust="spacing" textLength="35" x="505" y="645.4951">passe</text><text fill="#000000" font-family="sans-serif" font-size="13" lengthAdjust="spacing" textLength="7" x="368.1841" y="506.5579">1</text><text fill="#000000" font-family="sans-serif" font-size="13" lengthAdjust="spacing" textLength="20" x="479.4926" y="784.249">0..*</text></g><!--link Utilisateur to Jeu--><g id="link_Utilisateur_Jeu"><path codeLine="127" d="M634,288.11 C660.93,319.65 686,349 686,349 C686,349 722,416 722,416 C722,416 722,416 722,1178.5 C722,1178.5 663.9765,1232.1278 607.0365,1284.7478 " fill="none" id="Utilisateur-to-Jeu" style="stroke:#181818;stroke-width:1.0;"/><polygon fill="#181818" points="602.63,1288.82,611.9545,1285.6494,606.3021,1285.4265,606.525,1279.774,602.63,1288.82" style="stroke:#181818;stroke-width:1.0;"/><polygon fill="#000000" points="726.8648,761.174,730.0472,752.2117,724.1715,752.0527,726.8648,761.174" style="stroke:#000000;stroke-width:1.0;"/><text fill="#000000" font-family="sans-serif" font-size="13" lengthAdjust="spacing" textLength="49" x="736" y="761.4951">consulte</text><text fill="#000000" font-family="sans-serif" font-size="13" lengthAdjust="spacing" textLength="7" x="632.4773" y="309.2162">1</text><text fill="#000000" font-family="sans-serif" font-size="13" lengthAdjust="spacing" textLength="20" x="589.6451" y="1278.2682">0..*</text></g><!--reverse link Panier to LignePanier--><g id="link_Panier_LignePanier"><path codeLine="130" d="M319.3263,729.267 C327.5763,816.777 339.68,945.03 346.16,1013.79 " fill="none" id="Panier-backto-LignePanier" style="stroke:#181818;stroke-width:1.0;"/><polygon fill="#181818" points="318.2,717.32,314.7808,723.6689,319.3263,729.267,322.7455,722.9181,318.2,717.32" style="stroke:#181818;stroke-width:1.0;"/><text fill="#000000" font-family="sans-serif" font-size="13" lengthAdjust="spacing" textLength="7" x="311.518" y="738.1772">1</text><text fill="#000000" font-family="sans-serif" font-size="13" lengthAdjust="spacing" textLength="20" x="323.8678" y="1003.0629">1..*</text></g><!--link LignePanier to Jeu--><g id="link_LignePanier_Jeu"><path codeLine="131" d="M366.35,1097.14 C386.76,1147.86 419,1228 419,1228 C419,1228 434.0334,1251.7787 454.2734,1283.7887 " fill="none" id="LignePanier-to-Jeu" style="stroke:#181818;stroke-width:1.0;"/><polygon fill="#181818" points="457.48,1288.86,456.051,1279.1154,454.8078,1284.6339,449.2893,1283.3908,457.48,1288.86" style="stroke:#181818;stroke-width:1.0;"/><text fill="#000000" font-family="sans-serif" font-size="13" lengthAdjust="spacing" textLength="7" x="361.4783" y="1118.8677">1</text><text fill="#000000" font-family="sans-serif" font-size="13" lengthAdjust="spacing" textLength="7" x="445.4017" y="1278.0191">1</text></g><!--reverse link Commande to LigneCommande--><g id="link_Commande_LigneCommande"><path codeLine="134" d="M511,996.15 C511,1043.72 511,1087.59 511,1126.83 " fill="none" id="Commande-backto-LigneCommande" style="stroke:#181818;stroke-width:1.0;"/><polygon fill="#181818" points="511,984.15,507,990.15,511,996.15,515,990.15,511,984.15" style="stroke:#181818;stroke-width:1.0;"/><text fill="#000000" font-family="sans-serif" font-size="13" lengthAdjust="spacing" textLength="7" x="503.732" y="1005.5225">1</text><text fill="#000000" font-family="sans-serif" font-size="13" lengthAdjust="spacing" textLength="20" x="489.5938" y="1116.1115">1..*</text></g><!--link LigneCommande to Jeu--><g id="link_LigneCommande_Jeu"><path codeLine="135" d="M511,1228.21 C511,1246.6 511,1262.01 511,1282.65 " fill="none" id="LigneCommande-to-Jeu" style="stroke:#181818;stroke-width:1.0;"/><polygon fill="#181818" points="511,1288.65,515,1279.65,511,1283.65,507,1279.65,511,1288.65" style="stroke:#181818;stroke-width:1.0;"/><text fill="#000000" font-family="sans-serif" font-size="13" lengthAdjust="spacing" textLength="7" x="503.5516" y="1249.2609">1</text><text fill="#000000" font-family="sans-serif" font-size="13" lengthAdjust="spacing" textLength="7" x="503.6992" y="1278.0836">1</text></g><!--link Panier to Commande--><g id="link_Panier_Commande"><path codeLine="142" d="M365.59,717.06 C384.01,742.73 400,765 400,765 C400,765 407.3801,773.2068 422.8601,790.4368 " fill="none" id="Panier-to-Commande" style="stroke:#181818;stroke-width:1.0;"/><polygon fill="#181818" points="426.87,794.9,423.8306,785.5319,423.5284,791.1806,417.8796,790.8784,426.87,794.9" style="stroke:#181818;stroke-width:1.0;"/><polygon fill="#000000" points="408.0764,760.1173,404.828,751.1787,400.1944,754.7952,408.0764,760.1173" style="stroke:#000000;stroke-width:1.0;"/><text fill="#000000" font-family="sans-serif" font-size="13" lengthAdjust="spacing" textLength="77" x="414" y="761.4951">transformeEn</text></g><!--SRC=[dLRRRkCs47tNLn1vw2gREDYy2ji0WgCM3XoluKlHLveQEzobI8KNTzFTVb2_ep_M8NMn9CjOj7uIoRcSENCujFd2PKarBOZW4knR2QHKuiql8jEUCK6DIQtLVESip9YIQ_uda0yT4mEl3YI39TMMCrvIQOcJEMWVYkofC115qRkVXpyoMsoorI_fD5kJiyE8ImjwJncGrDaNa9RlETq98DyYGcxCQHDq30Nb8Y5hH2aFjwJ8osPndP2TKYBwQnJ0TZERpzRf9jkknY3GdR6QCbkHGBQM2swe1QS9Bqe11G8mO_0cXES9mGh2jrH50oUiUsZ3Zh7KEZjLHMcXTv1Zjga6QhcI2Nd4LVG_gwzAc0gERWI-Mf1vlw8ADnZx6sWVjtOD1S0VHe35VgJCycDpv94SAsETUGpnTUjqSm2DvZibPQ1fqOQ8aL2-hmpH_gXuxkrB-WOQ6IWeAYTc2Mc-psf8yu9BxZiJS5-kHI9KwbB6m5JDy7b07XLcwk3fWDW9XLBM5Ki1HFZgM8IofjHIeGuEMjznUQMFgsozpaQKrLIYmPWnoMZNrm5JEImLogIlcoCNec-8D9fsOnpLKxRz_STYVm8tWijogmSA1SCqBok1TlOF80UMfUPV4x8NYbQnw06UiP65AqxTeMKfk6_12dB7VD2uL4upR0AQrzuTqbkiovStunrREPpm6wlObrC9fK2Dx9KkJkXyvXoO3ae5lVOEyQk_YboEPdla1uwz64as4ZtmHdsdVbNT-fc0EMT-SFQ08751O-tf3qIsJ1UpR7LHOqigyNgEjFB2QA6V5SvvFUS72V5dS8alxfQyEfpgV429dqIknBuMGuUE1QE2EG5wev0nNql3m0tAJPh0bSvaU_MlJrV_n7c8tYkb1wZYpQwLCuCquvnDFpq_ful7opUpGN29j_guvirl5mebAcr8t-roDTgNb0TnzTy1OrTGx53VfZjI6yAUguWzoWeSMHhI9_HPXy1n5Rypy1lUTHDQnsSI3dGEQXmIMbtOhKIXSzrSlUY_ChtAvkbczcanzhn6xtf3-oTYod_-Pfo67LIbYGPFwyVlTtTTbwZh_l7xP5BFw_Fz_flXCzSluQGTml4ztaY_TukNs1cETeRGwj3WFoDZE68mrr7jUNL_HHI6llfmT_V-gWsJ15D0MXzwQMhnOfQo-WhFu6Wq_AojazhOFxlxGS2sVV4B5gQqdtwzS9F9GmEkjVK1FKeCrULeOEx7MO9lZZHEsBgG6j6aTnKdtZIg5px8Ur_2VGZIiOkwFcsk-v0erDJ0cmoKMSLlbsCPsbdHznp9ugkQd6lCRmUDT5wHtcOzx7s8EP9ByEKFBqt3mSDfNZLRdJqayZJdCeba_Wi0]--></g></svg>